<svg xmlns="http://www.w3.org/2000/svg" viewBox="0 0 266.834 214.8">
    <path d="M9.4 195.3c1.6 4.9 4.2 9.4 9.6 9.2 8.1-.2 8.4-8 8.4-10.8v-31.8h10.7v31.8c0 8.6-3.6 20.8-19.1 20.8-11.8 0-16.5-7.2-19-15.8zM65.3 193.1l-8.7 21H44.8l24.5-52.9 25 52.9H82.6l-8.8-21m0 0l-4.3-10.2-4.3 10.2M114.5 214.1h-10.4v-52.2h19.8c14.3 0 18.6 10 18.6 16.9 0 7.5-4.4 13-10.3 15.5l9.3 19.8H130l-8.5-18.1h-7zm17.4-35.3c0-2.5-1.3-7.3-7.7-7.3h-9.7v14.7h10c6-.2 7.4-5.1 7.4-7.4zM146.9 161.9h11.8l13 31.3 13.1-31.3h11.7l-24.2 52.9h-1zM216.7 214.1h-10.6v-52.2h10.6zM249 182.5c8.1 2.8 18.5 6 17.8 17.2-.5 8.5-8.1 15-19 15-7.8 0-13.8-1.9-20.2-5.3l4.6-8.7c5 2.4 10 4.3 15.1 4.3 4.5 0 7.8-1.9 8.4-5 .6-3.7-3.3-5.7-8.4-7.3-7.9-2.5-18.5-5-18.5-16.3 0-9.5 7.1-15.2 16.9-15.2 3 0 10.2.7 19 4.8l-3.8 8.9c-2.5-1-9.2-3.8-14.5-3.8-3.7 0-6.9 1.2-7.1 4.8.3 3.4 4.6 4.8 9.7 6.6z"/>
    <path d="M88.2 72.3h11.7v28.3H88.2zM160 53.8h11.7v28.3H160zM106 44.5h11.7v65.2H106zM124.2 47.2h11.7v50.1h-11.7zM142 0h11.7v82.1H142z" fill="#4ffb75"/>
</svg>
