<svg width="100" height="100" viewBox="0 0 100 100" fill="none" xmlns="http://www.w3.org/2000/svg">
<g clip-path="url(#clip0)">
<g filter="url(#filter0_d)">
<path d="M50 100C77.6142 100 100 77.6142 100 50C100 22.3858 77.6142 0 50 0C22.3858 0 0 22.3858 0 50C0 77.6142 22.3858 100 50 100Z" fill="#FF4A4A"/>
</g>
<path d="M50 94.8C74.7424 94.8 94.8 74.7423 94.8 50C94.8 25.2576 74.7424 5.19995 50 5.19995C25.2577 5.19995 5.20001 25.2576 5.20001 50C5.20001 74.7423 25.2577 94.8 50 94.8Z" stroke="white" stroke-width="2.4" stroke-dasharray="2.4 2.4"/>
<circle cx="50" cy="50" r="6" fill="white"/>
<circle cx="50.125" cy="49.875" r="21.625" stroke="white" stroke-width="3"/>
<circle cx="50.125" cy="49.875" r="13.2159" stroke="white" stroke-width="3"/>
</g>
<mask id="path-6-outside-1" maskUnits="userSpaceOnUse" x="48.1523" y="21.8794" width="29" height="30" fill="black">
<rect fill="white" x="48.1523" y="21.8794" width="29" height="30"/>
<path fill-rule="evenodd" clip-rule="evenodd" d="M68.7209 29.3288L68.5163 27.2221C68.4875 26.9252 68.5934 26.6311 68.8051 26.4202L71.0613 24.1723C71.5951 23.6404 72.5052 23.8656 72.7272 24.5845L73.2168 26.1697C73.3156 26.4899 73.5691 26.7393 73.8916 26.8338L75.381 27.2702C76.1105 27.484 76.3444 28.3979 75.8067 28.9337L73.5609 31.1712C73.3529 31.3785 73.0639 31.4842 72.7707 31.4602L70.8079 31.2999L51.4784 50.5586C51.2714 50.7649 50.9842 50.8706 50.6923 50.848L50.1209 50.8037C49.6289 50.7655 49.2381 50.3761 49.1998 49.886L49.1554 49.3167C49.1327 49.0258 49.2388 48.7397 49.4458 48.5334L68.7209 29.3288Z"/>
</mask>
<path fill-rule="evenodd" clip-rule="evenodd" d="M68.7209 29.3288L68.5163 27.2221C68.4875 26.9252 68.5934 26.6311 68.8051 26.4202L71.0613 24.1723C71.5951 23.6404 72.5052 23.8656 72.7272 24.5845L73.2168 26.1697C73.3156 26.4899 73.5691 26.7393 73.8916 26.8338L75.381 27.2702C76.1105 27.484 76.3444 28.3979 75.8067 28.9337L73.5609 31.1712C73.3529 31.3785 73.0639 31.4842 72.7707 31.4602L70.8079 31.2999L51.4784 50.5586C51.2714 50.7649 50.9842 50.8706 50.6923 50.848L50.1209 50.8037C49.6289 50.7655 49.2381 50.3761 49.1998 49.886L49.1554 49.3167C49.1327 49.0258 49.2388 48.7397 49.4458 48.5334L68.7209 29.3288Z" fill="white"/>
<path d="M68.5163 27.2221L67.521 27.3188L67.521 27.3188L68.5163 27.2221ZM68.7209 29.3288L69.4267 30.0372C69.639 29.8258 69.7452 29.5303 69.7163 29.2322L68.7209 29.3288ZM68.8051 26.4202L68.0993 25.7118L68.0993 25.7118L68.8051 26.4202ZM71.0613 24.1723L71.7671 24.8807L71.7671 24.8807L71.0613 24.1723ZM72.7272 24.5845L71.7717 24.8796L71.7717 24.8796L72.7272 24.5845ZM73.2168 26.1697L74.1722 25.8747L74.1722 25.8747L73.2168 26.1697ZM73.8916 26.8338L73.6104 27.7934L73.6104 27.7934L73.8916 26.8338ZM75.381 27.2702L75.6622 26.3106L75.6622 26.3106L75.381 27.2702ZM75.8067 28.9337L75.1009 28.2253L75.8067 28.9337ZM73.5609 31.1712L72.8551 30.4628L72.8551 30.4628L73.5609 31.1712ZM72.7707 31.4602L72.8521 30.4635L72.7707 31.4602ZM70.8079 31.2999L70.8893 30.3033C70.5974 30.2794 70.3096 30.3848 70.1021 30.5915L70.8079 31.2999ZM51.4784 50.5586L50.7726 49.8502L50.7726 49.8502L51.4784 50.5586ZM50.6923 50.848L50.7696 49.851L50.7696 49.851L50.6923 50.848ZM50.1209 50.8037L50.1982 49.8067L50.1982 49.8067L50.1209 50.8037ZM49.1998 49.886L50.1968 49.8081L50.1968 49.8081L49.1998 49.886ZM49.1554 49.3167L48.1584 49.3945L48.1584 49.3945L49.1554 49.3167ZM49.4458 48.5334L50.1516 49.2418L50.1516 49.2418L49.4458 48.5334ZM67.521 27.3188L67.7256 29.4255L69.7163 29.2322L69.5116 27.1255L67.521 27.3188ZM68.0993 25.7118C67.6758 26.1337 67.4631 26.7231 67.521 27.3188L69.5116 27.1255C69.5117 27.1263 69.5116 27.1272 69.5114 27.1277C69.5112 27.1282 69.5109 27.1286 69.5109 27.1286L68.0993 25.7118ZM70.3555 23.4638L68.0993 25.7118L69.5109 27.1286L71.7671 24.8807L70.3555 23.4638ZM73.6827 24.2894C73.2377 22.8486 71.4199 22.4033 70.3555 23.4638L71.7671 24.8807C71.7706 24.8771 71.7718 24.8768 71.7704 24.8776C71.7692 24.8783 71.7676 24.8789 71.7663 24.8792C71.7643 24.8798 71.7662 24.8789 71.7709 24.88C71.7757 24.8812 71.7766 24.8828 71.7744 24.8808C71.7732 24.8797 71.7718 24.8781 71.7708 24.8765C71.7697 24.8748 71.7704 24.8752 71.7717 24.8796L73.6827 24.2894ZM74.1722 25.8747L73.6827 24.2894L71.7717 24.8796L72.2613 26.4648L74.1722 25.8747ZM74.1728 25.8742L74.1722 25.8747L72.2613 26.4648C72.4595 27.1068 72.967 27.6049 73.6104 27.7934L74.1728 25.8742ZM75.6622 26.3106L74.1728 25.8742L73.6104 27.7934L75.0998 28.2299L75.6622 26.3106ZM76.5125 29.6421C77.5912 28.5673 77.1181 26.7372 75.6622 26.3106L75.0998 28.2299C75.1051 28.2315 75.1061 28.2325 75.1047 28.2316C75.1035 28.2308 75.1019 28.2296 75.1007 28.2282C75.0985 28.2259 75.0995 28.2259 75.1003 28.2292C75.1011 28.2324 75.1002 28.2325 75.1012 28.2286C75.1017 28.2264 75.1026 28.2242 75.1036 28.2225C75.1047 28.2206 75.1045 28.2216 75.1009 28.2253L76.5125 29.6421ZM74.2667 31.8796L76.5125 29.6421L75.1009 28.2253L72.8551 30.4628L74.2667 31.8796ZM72.6893 32.4569C73.2738 32.5047 73.8507 32.2941 74.2667 31.8796L72.8551 30.4628C72.855 30.4629 72.8539 30.4637 72.8521 30.4635L72.6893 32.4569ZM70.7265 32.2966L72.6893 32.4569L72.8521 30.4635L70.8893 30.3033L70.7265 32.2966ZM70.1021 30.5915L50.7726 49.8502L52.1842 51.267L71.5137 32.0083L70.1021 30.5915ZM50.7726 49.8502C50.7725 49.8503 50.7715 49.8511 50.7696 49.851L50.615 51.845C51.1969 51.8901 51.7703 51.6795 52.1842 51.267L50.7726 49.8502ZM50.7696 49.851L50.1982 49.8067L50.0436 51.8007L50.615 51.845L50.7696 49.851ZM50.1982 49.8067C50.1964 49.8065 50.1964 49.8063 50.1968 49.8065C50.1968 49.8065 50.1965 49.8063 50.1961 49.8059C50.1956 49.8055 50.1958 49.8055 50.1962 49.8063C50.1967 49.8075 50.1968 49.8085 50.1968 49.8081L48.2029 49.9638C48.2797 50.9478 49.0633 51.7247 50.0436 51.8007L50.1982 49.8067ZM50.1968 49.8081L50.1523 49.2388L48.1584 49.3945L48.2029 49.9638L50.1968 49.8081ZM50.1523 49.2388C50.1524 49.2396 50.1522 49.2404 50.152 49.241C50.1519 49.2415 50.1516 49.2418 50.1516 49.2418L48.74 47.825C48.3258 48.2376 48.1128 48.811 48.1584 49.3945L50.1523 49.2388ZM50.1516 49.2418L69.4267 30.0372L68.0151 28.6204L48.74 47.825L50.1516 49.2418Z" fill="#FF4A4A" mask="url(#path-6-outside-1)"/>
<defs>
<filter id="filter0_d" x="-24" y="-24" width="148" height="148" filterUnits="userSpaceOnUse" color-interpolation-filters="sRGB">
<feFlood flood-opacity="0" result="BackgroundImageFix"/>
<feColorMatrix in="SourceAlpha" type="matrix" values="0 0 0 0 0 0 0 0 0 0 0 0 0 0 0 0 0 0 127 0"/>
<feOffset/>
<feGaussianBlur stdDeviation="12"/>
<feColorMatrix type="matrix" values="0 0 0 0 0 0 0 0 0 0 0 0 0 0 0 0 0 0 0.1 0"/>
<feBlend mode="normal" in2="BackgroundImageFix" result="effect1_dropShadow"/>
<feBlend mode="normal" in="SourceGraphic" in2="effect1_dropShadow" result="shape"/>
</filter>
<clipPath id="clip0">
<rect width="100" height="100" fill="white"/>
</clipPath>
</defs>
</svg>
