<svg width="65" height="65" viewBox="0 0 65 65" fill="none" xmlns="http://www.w3.org/2000/svg">
<path d="M65 0H0V65H65V0Z" fill="#8716E8"/>
<path d="M59.782 16.8156L52.2547 16.9479H51.9285V16.9616C50.4282 17.0554 48.9995 17.636 47.8591 18.6154L42.3847 22.9493C42.3573 22.9698 42.3254 22.9835 42.2957 23.0063L27.2889 34.8494L27.1748 28.426C27.1682 28.0513 27.0132 27.6946 26.7437 27.4341C26.4743 27.1737 26.1125 27.0308 25.7378 27.0369L10.0375 27.3038C9.8519 27.307 9.66874 27.3469 9.49853 27.421C9.32832 27.4952 9.1744 27.6021 9.04558 27.7358C8.91677 27.8695 8.81558 28.0273 8.74781 28.2001C8.68005 28.373 8.64703 28.5575 8.65066 28.7431L8.83314 39.2221L8.85595 40.5702L8.87192 41.4324V41.6172C8.87148 41.8237 8.88214 42.03 8.90385 42.2354C8.90385 42.2901 8.90385 42.3403 8.91982 42.3905C8.93579 42.4406 8.91982 42.4931 8.93351 42.5479C8.9512 42.767 8.98244 42.9849 9.02703 43.2002C9.06777 43.4423 9.12107 43.6822 9.1867 43.9187C9.32361 44.4452 9.53564 44.9491 9.81626 45.4151C10.0043 45.7533 10.2147 46.0787 10.4458 46.3891C10.913 47.0504 11.4947 47.6228 12.1634 48.0793C13.6393 49.2358 15.9271 49.9612 18.491 49.9041C21.0549 49.8471 23.361 49.0396 24.7912 47.8102C24.9602 47.6912 25.121 47.5609 25.2725 47.4201C25.9502 46.8486 26.5952 46.2393 27.2045 45.5953C27.7611 45.0205 28.2492 44.4776 28.6073 44.0488L42.5375 29.1468C42.6145 29.0632 42.6833 28.9723 42.7428 28.8754L45.7081 25.7139L49.0932 22.0757L49.8071 21.3138C51.0555 20.1414 52.6956 19.4754 54.408 19.4457L57.6561 19.3886L59.8277 19.3499C60.1646 19.3438 60.4854 19.2041 60.7194 18.9616C60.9534 18.7191 61.0814 18.3935 61.0754 18.0565C61.0693 17.7196 60.9297 17.3988 60.6871 17.1648C60.4446 16.9308 60.119 16.8027 59.782 16.8088V16.8156Z" fill="white"/>
</svg>
