<svg width="65" height="65" viewBox="0 0 65 65" fill="none" xmlns="http://www.w3.org/2000/svg">
<g clip-path="url(#clip0)">
<line x1="32.9525" y1="46.0137" x2="32.9525" y2="33.3748" stroke="#2D2E33" stroke-width="2.70833"/>
<circle cx="32.952" cy="50.9794" r="4.51389" fill="white" stroke="#2D2E33" stroke-width="2.70833"/>
<line x1="48.2964" y1="40.1431" x2="39.3593" y2="31.206" stroke="#2D2E33" stroke-width="2.70833"/>
<line y1="-1.35417" x2="12.6389" y2="-1.35417" transform="matrix(0.707107 -0.707107 -0.707107 -0.707107 17.1719 39.1846)" stroke="#2D2E33" stroke-width="2.70833"/>
<circle r="4.51389" transform="matrix(-0.707107 -0.707107 -0.707107 0.707107 14.6173 43.6523)" fill="white" stroke="#2D2E33" stroke-width="2.70833"/>
<line y1="-1.35417" x2="12.6389" y2="-1.35417" transform="matrix(1 -4.47292e-08 -4.47292e-08 -1 10.834 24.3457)" stroke="#2D2E33" stroke-width="2.70833"/>
<circle r="4.51389" transform="matrix(-4.37114e-08 -1 -1 4.37114e-08 5.86827 25.7003)" fill="#FF4A4A" stroke="#2D2E33" stroke-width="2.70833"/>
<line x1="54.168" y1="25.6999" x2="41.5291" y2="25.6999" stroke="#2D2E33" stroke-width="2.70833"/>
<circle cx="59.1337" cy="25.7003" r="4.51389" transform="rotate(-90 59.1337 25.7003)" fill="white" stroke="#2D2E33" stroke-width="2.70833"/>
<circle cx="33" cy="25" r="13.645" fill="#FF4A4A" stroke="#2D2E33" stroke-width="2.71"/>
<circle cx="51.8065" cy="43.6523" r="4.51389" transform="rotate(-45 51.8065 43.6523)" fill="#FF4A4A" stroke="#2D2E33" stroke-width="2.70833"/>
</g>
<defs>
<clipPath id="clip0">
<rect width="65" height="65" fill="white"/>
</clipPath>
</defs>
</svg>
