<svg width="70" height="86" viewBox="0 0 70 86" fill="none" xmlns="http://www.w3.org/2000/svg">
<path d="M64.5921 86H5.40793C2.42424 86 0 83.5761 0 80.5929V39.6672C0 36.684 2.42424 34.2601 5.40793 34.2601H64.5921C67.5758 34.2601 70 36.684 70 39.6672V80.5852C70 83.5761 67.5835 86 64.5921 86Z" fill="#FF4A4A"/>
<path d="M57.3735 34.2602H49.7123V20.0822C49.7123 10.278 40.466 7.65998 35.0036 7.65998C29.5413 7.65998 20.295 10.278 20.295 20.0822V34.2602H12.6338V20.0822C12.6338 6.89865 23.8848 0 35.0036 0C46.1225 0 57.3735 6.89865 57.3735 20.0822V34.2602Z" fill="#B20000"/>
<path d="M64.5688 86H5.43901C2.43978 86 0 83.5684 0 80.5619V79.4432H70V80.5619C70 83.5607 67.568 86 64.5688 86Z" fill="#B20000"/>
<path d="M36.3016 69.2507H33.924C33.551 69.2507 33.2402 68.9477 33.2402 68.567V55.5621H36.9776V68.5748C36.9854 68.9477 36.6823 69.2507 36.3016 69.2507Z" fill="white"/>
<path d="M35.004 63.9446C39.7329 63.9446 43.5665 60.1116 43.5665 55.3834C43.5665 50.6552 39.7329 46.8223 35.004 46.8223C30.275 46.8223 26.4414 50.6552 26.4414 55.3834C26.4414 60.1116 30.275 63.9446 35.004 63.9446Z" fill="white"/>
<path d="M35.1212 61.5519C38.4683 61.5519 41.1818 58.8389 41.1818 55.4922C41.1818 52.1456 38.4683 49.4326 35.1212 49.4326C31.774 49.4326 29.0605 52.1456 29.0605 55.4922C29.0605 58.8389 31.774 61.5519 35.1212 61.5519Z" fill="#FFA6A6"/>
<path d="M12.7817 48.5159H0V51.2815H12.7817V48.5159Z" fill="#FFA6A6"/>
<path d="M12.7817 56.8285H0V59.5942H12.7817V56.8285Z" fill="#FFA6A6"/>
<path d="M12.7817 65.1332H0V67.8988H12.7817V65.1332Z" fill="#FFA6A6"/>
<path d="M69.9994 48.5159H57.2178V51.2815H69.9994V48.5159Z" fill="#FFA6A6"/>
<path d="M69.9994 56.8285H57.2178V59.5942H69.9994V56.8285Z" fill="#FFA6A6"/>
<path d="M69.9994 65.1332H57.2178V67.8988H69.9994V65.1332Z" fill="#FFA6A6"/>
</svg>
