<svg width="26" height="22" viewBox="0 0 26 22" fill="none" xmlns="http://www.w3.org/2000/svg">
<path fill-rule="evenodd" clip-rule="evenodd" d="M2.24672 0.919922L23.7533 0.920313C24.6185 0.920313 25.32 1.62013 25.32 2.48328V20.1502C25.32 20.7977 24.7936 21.3225 24.1449 21.3225H20.6899C20.0409 21.3225 19.5149 20.7977 19.5149 20.1502V7.49297C19.5149 7.06159 19.1639 6.71149 18.7315 6.71149L7.2685 6.7111C6.83608 6.7111 6.48513 7.06081 6.48513 7.49258V20.1502C6.48513 20.7977 5.9591 21.3225 5.31008 21.3225H1.85504C1.20603 21.3225 0.679993 20.7977 0.679993 20.1502V2.48289C0.679993 1.61974 1.3815 0.919922 2.24672 0.919922Z" fill="white"/>
<path fill-rule="evenodd" clip-rule="evenodd" d="M10.0975 11.6581V15.1361C10.0975 15.7793 10.6239 16.3005 11.2735 16.3005H14.7283C15.3779 16.3005 15.9044 15.7793 15.9044 15.1361V11.6581C15.9044 11.0149 15.3779 10.4937 14.7283 10.4937H11.2735C10.6239 10.4937 10.0975 11.0149 10.0975 11.6581Z" fill="white"/>
</svg>
