<svg width="100" height="100" viewBox="0 0 100 100" fill="none" xmlns="http://www.w3.org/2000/svg">
<mask id="mask0" mask-type="alpha" maskUnits="userSpaceOnUse" x="0" y="0" width="100" height="100">
<rect width="100" height="100" fill="#C4C4C4"/>
</mask>
<g mask="url(#mask0)">
</g>
<path d="M19.9054 18.0821L7.01367 30.5642L66.0707 93.2355L78.9624 80.7534L19.9054 18.0821Z" fill="#FF4A4A"/>
<path d="M66.0742 93.237L70.9165 98.3755C72.8905 100.467 76.1577 100.544 78.2212 98.5428L83.6412 93.2928C85.7047 91.2988 85.7803 87.9801 83.8063 85.8884L78.964 80.75L66.0742 93.237Z" fill="#B20000"/>
<path d="M7.01679 30.5647L0.0491538 11.0916C-0.170949 10.4711 0.434334 9.88543 1.03274 10.1364L19.8997 18.0846L7.01679 30.5647Z" fill="#FFA6A6"/>
<path d="M2.99303 19.3257L9.01836 13.497L1.03274 10.1364C0.434334 9.88543 -0.170949 10.4711 0.0491538 11.0916L2.99303 19.3257Z" fill="#B20000"/>
<path d="M19.6902 34.4628L18.417 35.6956L69.507 89.9122L70.7802 88.6794L19.6902 34.4628Z" fill="white"/>
<path d="M24.4412 29.8603L23.168 31.0931L74.258 85.3098L75.5312 84.077L24.4412 29.8603Z" fill="white"/>
<path d="M77.8311 79.5539L64.9395 92.036L66.0701 93.2359L78.9618 80.7538L77.8311 79.5539Z" fill="white"/>
<path d="M68.1622 17.1841L9.68652 80.4187L22.6941 92.7779L81.1697 29.5433L68.1622 17.1841Z" fill="#FF4A4A"/>
<path d="M9.69241 80.4224L4.89829 85.6096C2.94487 87.7222 3.05492 91.0339 5.13215 93.014L10.6003 98.2082C12.6844 100.188 15.9516 100.077 17.905 97.9712L22.6991 92.7839L9.69241 80.4224Z" fill="#B20000"/>
<path d="M68.1641 17.1853L86.9554 9.06279C87.5538 8.80482 88.1659 9.39048 87.9527 10.011L81.1639 29.5469L68.1641 17.1853Z" fill="#FFA6A6"/>
<path d="M79.0117 12.5L85.0852 18.273L87.9534 10.011C88.1666 9.39048 87.5545 8.80482 86.9561 9.06279L79.0117 12.5Z" fill="#B20000"/>
<path d="M65.0249 30.2348L63.7402 29.0142L13.1532 83.7182L14.4379 84.9388L65.0249 30.2348Z" fill="white"/>
<path d="M69.8189 34.789L68.5342 33.5684L17.9472 88.2724L19.2319 89.493L69.8189 34.789Z" fill="white"/>
<path d="M23.8142 91.5683L10.8066 79.2091L9.68708 80.4198L22.6946 92.779L23.8142 91.5683Z" fill="white"/>
<path d="M59.3628 26.7299L58.0781 25.5093L7.49113 80.2133L8.77582 81.434L59.3628 26.7299Z" fill="white"/>
<path d="M73.8394 40.0753L72.5547 38.8546L21.9677 93.5586L23.2524 94.7793L73.8394 40.0753Z" fill="white"/>
</svg>
