<?xml version="1.0" encoding="utf-8"?>
<!-- Generator: Adobe Illustrator 25.0.0, SVG Export Plug-In . SVG Version: 6.00 Build 0)  -->
<svg version="1.1" id="Layer_1" xmlns="http://www.w3.org/2000/svg" xmlns:xlink="http://www.w3.org/1999/xlink" x="0px" y="0px"
	 viewBox="0 0 45.7 56.6" style="enable-background:new 0 0 45.7 56.6;" xml:space="preserve">
<style type="text/css">
	.st0{fill:#FFFFFF;fill-opacity:0.5;}
	.st1{fill:#FFFFFF;}
	.st2{fill:#F39999;}
	.st3{fill:#E73333;}
	.st4{fill:#FFA6A6;}
</style>
<path class="st0" d="M45.7,52.1H15.8L5.3,41.6V0h40.4V52.1z"/>
<path class="st1" d="M40.4,56.6H10.4L0,46.1V4.4h40.4V56.6z"/>
<path class="st2" d="M10.4,56.6L0,46.1h10.4V56.6z"/>
<path class="st3" d="M15.8,10.5H5.1v10.7h10.7V10.5z"/>
<path class="st4" d="M35.6,12.1H20.1c-0.4,0-0.7-0.3-0.7-0.7c0-0.4,0.3-0.7,0.7-0.7h15.5c0.4,0,0.7,0.3,0.7,0.7
	C36.3,11.8,36,12.1,35.6,12.1z"/>
<path class="st4" d="M35.6,16.5H20.1c-0.4,0-0.7-0.3-0.7-0.7s0.3-0.7,0.7-0.7h15.5c0.4,0,0.7,0.3,0.7,0.7
	C36.3,16.2,36,16.5,35.6,16.5z"/>
<path class="st4" d="M35.6,27.5H5.9c-0.4,0-0.7-0.3-0.7-0.7s0.3-0.7,0.7-0.7h29.6c0.4,0,0.7,0.3,0.7,0.7
	C36.3,27.2,36,27.5,35.6,27.5z"/>
<path class="st4" d="M35.6,31.9H5.9c-0.4,0-0.7-0.3-0.7-0.7s0.3-0.7,0.7-0.7h29.6c0.4,0,0.7,0.3,0.7,0.7
	C36.3,31.6,36,31.9,35.6,31.9z"/>
<path class="st4" d="M27.3,20.9h-7.4c-0.3,0-0.5-0.2-0.5-0.5V20c0-0.3,0.2-0.5,0.5-0.5h7.4c0.3,0,0.5,0.2,0.5,0.5v0.4
	C27.8,20.7,27.6,20.9,27.3,20.9z"/>
<path class="st3" d="M35.5,50.8c-0.5,0-0.9-0.4-1-0.9c0-0.4-0.2-1.4-0.7-1.7c-0.2-0.1-0.9-0.2-2.5,1.1c-0.9,0.7-2,1.5-3,1
	c-1.1-0.5-1.1-2-1.1-3.5c0-1,0-2.7-0.5-2.8c-0.8-0.1-1.5,0.8-2.5,2.2c-1.4,1.9-3.1,4.2-6.5,4.2c-0.5,0-1-0.4-1-1c0-0.5,0.4-1,1-1
	c2.4,0,3.7-1.7,4.9-3.4c1.1-1.5,2.3-3.1,4.2-2.9c2.3,0.2,2.3,2.9,2.3,4.7c0,0.5,0,1.2,0,1.6c0.2-0.1,0.5-0.3,0.9-0.6
	c1.8-1.5,3.3-2,4.5-1.4c1.7,0.8,1.8,3.1,1.9,3.3C36.5,50.3,36.1,50.8,35.5,50.8C35.5,50.8,35.5,50.8,35.5,50.8z"/>
<path class="st4" d="M13.3,36H5.9c-0.4,0-0.7-0.3-0.7-0.7s0.3-0.7,0.7-0.7h7.4c0.4,0,0.7,0.3,0.7,0.7C14,35.6,13.7,36,13.3,36z"/>
<path class="st4" d="M23.9,36h-7.4c-0.4,0-0.7-0.3-0.7-0.7s0.3-0.7,0.7-0.7h7.4c0.4,0,0.7,0.3,0.7,0.7C24.6,35.6,24.3,36,23.9,36z"
	/>
<path class="st4" d="M30.9,36h-3.3c-0.4,0-0.7-0.3-0.7-0.7s0.3-0.7,0.7-0.7h3.3c0.4,0,0.7,0.3,0.7,0.7C31.6,35.6,31.3,36,30.9,36z"
	/>
</svg>
