<?xml version="1.0" encoding="utf-8"?>
<!-- Generator: Adobe Illustrator 25.0.0, SVG Export Plug-In . SVG Version: 6.00 Build 0)  -->
<svg version="1.1" id="Layer_1" xmlns="http://www.w3.org/2000/svg" xmlns:xlink="http://www.w3.org/1999/xlink" x="0px" y="0px"
	 viewBox="0 0 60.1 43.2" style="enable-background:new 0 0 60.1 43.2;" xml:space="preserve">
<style type="text/css">
	.st0{fill:#FFFFFF;}
	.st1{fill:#F39999;}
	.st2{fill:#E73333;}
</style>
<path class="st0" d="M60.1,0H0v43.2h60.1V0z"/>
<path class="st1" d="M60.1,0H0v5.4h60.1V0z M39.8,14.8H20.3c-0.5,0-0.9-0.4-0.9-0.9c0-0.5,0.4-0.9,0.9-0.9h19.5
	c0.5,0,0.9,0.4,0.9,0.9C40.6,14.4,40.2,14.8,39.8,14.8z M27.3,18.7h-7.1c-0.5,0-0.8-0.4-0.8-0.8v-0.1c0-0.5,0.4-0.8,0.8-0.8h7.1
	c0.5,0,0.8,0.4,0.8,0.8v0.1C28.1,18.3,27.8,18.7,27.3,18.7z M33.5,18.7h-3.1c-0.5,0-0.8-0.4-0.8-0.8v-0.1c0-0.5,0.4-0.8,0.8-0.8h3.1
	c0.5,0,0.8,0.4,0.8,0.8v0.1C34.3,18.3,34,18.7,33.5,18.7z M39.8,30.5H20.3c-0.5,0-0.9-0.4-0.9-0.9c0-0.5,0.4-0.9,0.9-0.9h19.5
	c0.5,0,0.9,0.4,0.9,0.9C40.6,30.2,40.2,30.5,39.8,30.5z M27.3,34.4h-7.1c-0.5,0-0.8-0.4-0.8-0.8v-0.1c0-0.5,0.4-0.8,0.8-0.8h7.1
	c0.5,0,0.8,0.4,0.8,0.8v0.1C28.1,34.1,27.8,34.4,27.3,34.4z M33.5,34.4h-3.1c-0.5,0-0.8-0.4-0.8-0.8v-0.1c0-0.5,0.4-0.8,0.8-0.8h3.1
	c0.5,0,0.8,0.4,0.8,0.8v0.1C34.3,34.1,34,34.4,33.5,34.4z"/>
<path class="st2" d="M3.8,3.8C4.5,3.8,5,3.3,5,2.7S4.5,1.6,3.8,1.6S2.7,2.1,2.7,2.7S3.2,3.8,3.8,3.8z M7.6,3.8
	c0.6,0,1.1-0.5,1.1-1.1S8.2,1.6,7.6,1.6S6.5,2.1,6.5,2.7S7,3.8,7.6,3.8z M49.6,20.6c2.6,0,4.7-2.1,4.7-4.7s-2.1-4.7-4.7-4.7
	c-2.6,0-4.7,2.1-4.7,4.7S47,20.6,49.6,20.6z M15.5,11H5.7v9.8h9.8V11z M49.6,36.3c2.6,0,4.7-2.1,4.7-4.7c0-2.6-2.1-4.7-4.7-4.7
	c-2.6,0-4.7,2.1-4.7,4.7C44.9,34.2,47,36.3,49.6,36.3z M15.5,26.7H5.7v9.8h9.8V26.7z"/>
<path class="st0" d="M48.8,18.6c-0.1,0-0.2,0-0.3-0.1L46.9,17c-0.2-0.2-0.2-0.5,0-0.7c0.2-0.2,0.5-0.2,0.7,0l1.2,1.1l2.6-3.6
	c0.2-0.2,0.5-0.3,0.7-0.1c0.2,0.2,0.3,0.5,0.1,0.7l-2.9,4.1C49.2,18.5,49,18.6,48.8,18.6C48.9,18.6,48.8,18.6,48.8,18.6z M48.8,34.4
	c-0.1,0-0.2,0-0.3-0.1l-1.6-1.5c-0.2-0.2-0.2-0.5,0-0.7c0.2-0.2,0.5-0.2,0.7,0l1.2,1.1l2.6-3.6c0.2-0.2,0.5-0.3,0.7-0.1
	c0.2,0.2,0.3,0.5,0.1,0.7l-2.9,4.1C49.2,34.3,49,34.3,48.8,34.4C48.9,34.4,48.8,34.4,48.8,34.4z"/>
</svg>
