<?xml version="1.0" encoding="utf-8"?>
<!-- Generator: Adobe Illustrator 25.0.0, SVG Export Plug-In . SVG Version: 6.00 Build 0)  -->
<svg version="1.1" id="Layer_1" xmlns="http://www.w3.org/2000/svg" xmlns:xlink="http://www.w3.org/1999/xlink" x="0px" y="0px"
	 viewBox="0 0 25 28.4" style="enable-background:new 0 0 25 28.4;" xml:space="preserve">
<path d="M11.4,13.5c0,0.9-0.6,1.6-1.5,1.6c-0.8,0-1.5-0.7-1.5-1.6c0-0.9,0.6-1.6,1.5-1.6C10.7,11.9,11.4,12.6,11.4,13.5z M15.1,11.9
	c-0.8,0-1.5,0.7-1.5,1.6c0,0.9,0.7,1.6,1.5,1.6c0.8,0,1.5-0.7,1.5-1.6C16.6,12.6,15.9,11.9,15.1,11.9z M25,2.9v25.5l-3.1-2.7
	l-1.7-1.6l-1.8-1.7l0.8,2.6H2.9c-1.6,0-2.9-1.3-2.9-2.9V2.9C0,1.3,1.3,0,2.9,0h19.1C23.7,0,25,1.3,25,2.9z M20.9,16.4
	c0-4.6-2.1-8.3-2.1-8.3c-2.1-1.5-4-1.5-4-1.5l-0.2,0.2c2.4,0.7,3.6,1.8,3.6,1.8c-1.5-0.8-2.9-1.2-4.3-1.4c-1-0.1-2-0.1-2.9,0
	c-0.1,0-0.2,0-0.2,0c-0.5,0-1.7,0.2-3.2,0.9C7,8.5,6.7,8.7,6.7,8.7s1.2-1.1,3.8-1.9l-0.1-0.2c0,0-2,0-4,1.5c0,0-2.1,3.7-2.1,8.3
	c0,0,1.2,2.1,4.4,2.2c0,0,0.5-0.6,1-1.2c-1.8-0.5-2.5-1.7-2.5-1.7s0.1,0.1,0.4,0.2c0,0,0,0,0.1,0c0,0,0.1,0,0.1,0.1
	c0.4,0.2,0.7,0.4,1,0.5c0.6,0.2,1.3,0.5,2.1,0.6c1.1,0.2,2.3,0.3,3.7,0c0.7-0.1,1.4-0.3,2.1-0.6c0.5-0.2,1.1-0.5,1.6-0.8
	c0,0-0.7,1.2-2.6,1.7c0.4,0.5,0.9,1.2,0.9,1.2C19.7,18.5,20.9,16.4,20.9,16.4z"/>
</svg>
