<svg width="14" height="14" fill="none" xmlns="http://www.w3.org/2000/svg"><path fill-rule="evenodd" clip-rule="evenodd" d="M13.662 0H0v13.662h13.662V0zM3.685 4.656a.349.349 0 01.02.153v3.803a.459.459 0 01-.112.378l-.86 1.096v.145h2.441v-.145L4.313 8.99a.458.458 0 01-.119-.378V5.323l2.143 4.908h.25l1.84-4.908v3.912c0 .104 0 .124-.065.193l-.662.674v.145h3.214v-.145l-.639-.658a.2.2 0 01-.062-.086.21.21 0 01-.01-.107v-4.84a.21.21 0 01.01-.106.2.2 0 01.062-.086l.655-.658v-.145H8.664L7.05 7.645 5.212 3.416H2.836v.145l.765.967a.334.334 0 01.084.128z" fill="#000" /></svg>