<svg width="15" height="14" fill="none" xmlns="http://www.w3.org/2000/svg"><path d="M7.5 0C3.356 0 0 3.214 0 7.178c0 3.172 2.149 5.862 5.128 6.81.375.067.513-.155.513-.345 0-.171-.007-.623-.01-1.22-2.086.432-2.526-.964-2.526-.964-.341-.828-.834-1.05-.834-1.05-.68-.445.052-.436.052-.436.753.05 1.149.74 1.149.74.669 1.097 1.756.78 2.184.597.068-.465.26-.78.475-.96-1.665-.18-3.416-.797-3.416-3.547a2.7 2.7 0 01.772-1.926c-.085-.182-.338-.911.066-1.9 0 0 .628-.193 2.062.736.6-.16 1.237-.239 1.875-.243a7.493 7.493 0 011.875.243c1.425-.929 2.053-.736 2.053-.736.403.989.15 1.718.075 1.9.478.502.769 1.142.769 1.926 0 2.757-1.753 3.364-3.422 3.54.262.216.506.656.506 1.329 0 .96-.01 1.732-.01 1.965 0 .188.132.413.516.341 3.001-.941 5.148-3.633 5.148-6.8C15 3.214 11.642 0 7.5 0z" fill="#000" fill-opacity=".75"/></svg>