<svg width="15" height="13" viewBox="0 0 15 13" fill="none" xmlns="http://www.w3.org/2000/svg">
<path opacity="0.8" d="M15 1.505C14.4383 1.74996 13.8425 1.91074 13.2325 1.98201C13.8679 1.6071 14.3558 1.0134 14.5856 0.30602C13.9815 0.658895 13.3206 0.907518 12.6314 1.04115C12.07 0.452411 11.2703 0.0844727 10.3851 0.0844727C8.68553 0.0844727 7.30758 1.44087 7.30758 3.1138C7.30758 3.35127 7.33482 3.58245 7.38727 3.80423C4.82965 3.67785 2.56207 2.47183 1.0442 0.639004C0.779355 1.08642 0.627598 1.60687 0.627598 2.16197C0.627598 3.21301 1.17094 4.14021 1.99664 4.68349C1.50794 4.66843 1.02999 4.53849 0.602695 4.30454C0.60252 4.31723 0.60252 4.32992 0.60252 4.34267C0.60252 5.81044 1.6633 7.03486 3.07107 7.31316C2.6179 7.43449 2.14256 7.45224 1.68135 7.36507C2.07293 8.56862 3.20947 9.44442 4.55607 9.46894C3.50285 10.2814 2.17588 10.7657 0.734121 10.7657C0.485684 10.7657 0.240762 10.7514 0 10.7234C1.36189 11.5829 2.97949 12.0845 4.71738 12.0845C10.3779 12.0845 13.4733 7.46832 13.4733 3.46513C13.4733 3.33373 13.4704 3.20309 13.4644 3.0732C14.0669 2.64446 14.5869 2.11342 15 1.505Z" fill="black" fill-opacity="0.75"/>
</svg>
