<svg width="27" height="23" viewBox="0 0 27 23" fill="none" xmlns="http://www.w3.org/2000/svg">
<path d="M27 2.68415C25.989 3.13205 24.9165 3.42606 23.8184 3.55638C24.9622 2.87083 25.8405 1.78524 26.254 0.491775C25.1667 1.13702 23.9771 1.59163 22.7365 1.83597C21.726 0.759455 20.2865 0.0866699 18.6932 0.0866699C15.6339 0.0866699 13.1536 2.56687 13.1536 5.62589C13.1536 6.0601 13.2027 6.48282 13.2971 6.88835C8.69337 6.65727 4.61173 4.45202 1.87956 1.10065C1.40284 1.91877 1.12968 2.87041 1.12968 3.88544C1.12968 5.8073 2.10769 7.50271 3.59395 8.49612C2.71429 8.46857 1.85398 8.23098 1.08485 7.80319C1.08454 7.82639 1.08454 7.84959 1.08454 7.8729C1.08454 10.5568 2.99394 12.7957 5.52793 13.3045C4.71222 13.5264 3.8566 13.5589 3.02643 13.3995C3.73127 15.6002 5.77705 17.2016 8.20093 17.2464C6.30513 18.7321 3.91658 19.6177 1.32142 19.6177C0.874231 19.6177 0.433371 19.5914 0 19.5403C2.45141 21.112 5.36309 22.029 8.49129 22.029C18.6803 22.029 24.2519 13.5883 24.2519 6.2683C24.2519 6.02804 24.2466 5.78916 24.2359 5.55164C25.3203 4.76767 26.2564 3.79665 27 2.68415Z" fill="black"/>
</svg>
