<svg width="113" height="113" fill="none" xmlns="http://www.w3.org/2000/svg"><path fill-rule="evenodd" clip-rule="evenodd" d="M56.5 0C25.296 0 0 25.296 0 56.5S25.296 113 56.5 113 113 87.704 113 56.5 87.704 0 56.5 0zm14.58 48.063c-.795 0-1.702-1.024-2.156-1.82-4.65-7.505-15.198-8.87-21.21-2.729-5.67 5.914-5.67 18.764-.113 24.677 5.898 6.369 16.673 5.118 21.21-2.502.794-1.478 1.815-1.933 3.403-1.933 2.634.076 5.218.051 7.851.026 1.336-.013 2.684-.026 4.058-.026-1.02 9.325-9.074 18.31-18.374 20.129-3.686.757-7.528.726-11.397.695-.775-.007-1.551-.013-2.328-.013-1.36.114-2.268.227-2.949 1.478-1.163 2.139-2.41 4.277-3.739 6.558l-.684 1.175c-1.588-.91-3.14-1.82-4.69-2.729-2.328-1.365-4.656-2.73-7.106-4.094a641.515 641.515 0 012.88-5.126c.719-1.269 1.425-2.517 2.11-3.744-8.506-9.552-10.094-20.583-6.805-32.524 2.95-10.462 11.91-17.74 22.798-18.422 3.63-.228 7.26.227 10.889.682 1.588.227 2.268-.114 2.949-1.478 1.006-1.918 2.102-3.746 3.287-5.723.15-.25.303-.503.456-.76 1.984 1.138 3.941 2.247 5.898 3.355a1446.76 1446.76 0 015.898 3.355c-.412.713-.8 1.44-1.183 2.157-.776 1.456-1.535 2.879-2.447 4.098-1.361 1.933-1.02 3.184.34 4.89 2.269 3.07 3.743 6.481 4.31 10.462-1.145 0-2.275.007-3.395.014-3.317.021-6.54.042-9.762-.128z" fill="#453dff"/></svg>
