<svg width="25" height="29" viewBox="0 0 25 29" fill="none" xmlns="http://www.w3.org/2000/svg">
<path d="M9.91417 12.1447C9.09989 12.1447 8.45703 12.8557 8.45703 13.7231C8.45703 14.5905 9.11417 15.3015 9.91417 15.3015C10.7285 15.3015 11.3713 14.5905 11.3713 13.7231C11.3856 12.8557 10.7285 12.1447 9.91417 12.1447ZM15.1284 12.1447C14.3142 12.1447 13.6713 12.8557 13.6713 13.7231C13.6713 14.5905 14.3284 15.3015 15.1284 15.3015C15.9427 15.3015 16.5856 14.5905 16.5856 13.7231C16.5856 12.8557 15.9427 12.1447 15.1284 12.1447Z" fill="black"/>
<path d="M22.0714 0.214172H2.92857C1.31429 0.214172 0 1.5224 0 3.14347V22.3688C0 23.9898 1.31429 25.2981 2.92857 25.2981H19.1286L18.3714 22.6674L20.2 24.3595L21.9286 25.9522L25 28.6539V3.14347C25 1.5224 23.6857 0.214172 22.0714 0.214172ZM16.5571 18.7853C16.5571 18.7853 16.0429 18.1739 15.6143 17.6335C17.4857 17.1074 18.2 15.9414 18.2 15.9414C17.6143 16.3253 17.0571 16.5955 16.5571 16.7803C15.8429 17.079 15.1571 17.278 14.4857 17.3918C13.1143 17.6478 11.8571 17.5767 10.7857 17.3776C9.97143 17.2212 9.27143 16.9936 8.68571 16.7661C8.35714 16.6381 8 16.4817 7.64286 16.2826C7.6 16.2542 7.55714 16.24 7.51429 16.2115C7.48571 16.1973 7.47143 16.1831 7.45714 16.1689C7.2 16.0267 7.05714 15.9271 7.05714 15.9271C7.05714 15.9271 7.74286 17.0647 9.55714 17.6051C9.12857 18.1455 8.6 18.7853 8.6 18.7853C5.44286 18.6858 4.24286 16.6239 4.24286 16.6239C4.24286 12.0451 6.3 8.33373 6.3 8.33373C8.35714 6.79798 10.3143 6.84064 10.3143 6.84064L10.4571 7.01128C7.88571 7.75071 6.7 8.87409 6.7 8.87409C6.7 8.87409 7.01429 8.70345 7.54286 8.46171C9.07143 7.79337 10.2857 7.60851 10.7857 7.56585C10.8714 7.55163 10.9429 7.53742 11.0286 7.53742C11.9 7.42366 12.8857 7.39522 13.9143 7.50898C15.2714 7.66539 16.7286 8.06355 18.2143 8.87409C18.2143 8.87409 17.0857 7.80759 14.6571 7.06816L14.8571 6.84064C14.8571 6.84064 16.8143 6.79798 18.8714 8.33373C18.8714 8.33373 20.9286 12.0451 20.9286 16.6239C20.9286 16.6239 19.7143 18.6858 16.5571 18.7853Z" fill="black"/>
</svg>
