<svg width="27" height="27" viewBox="0 0 27 27" fill="none" xmlns="http://www.w3.org/2000/svg">
<path d="M13.5 0.334106C6.04125 0.334106 0 6.37873 0 13.8341C0 19.8 3.86775 24.8591 9.23063 26.6422C9.90563 26.7694 10.1531 26.352 10.1531 25.9931C10.1531 25.6725 10.1419 24.8231 10.1363 23.6981C6.381 24.5126 5.589 21.8869 5.589 21.8869C4.97475 20.3287 4.08712 19.9125 4.08712 19.9125C2.86425 19.0755 4.18162 19.0924 4.18162 19.0924C5.53725 19.1869 6.24937 20.4829 6.24937 20.4829C7.45312 22.5472 9.4095 21.951 10.1813 21.6056C10.3028 20.7326 10.6504 20.1375 11.0363 19.8C8.03813 19.4625 4.887 18.3015 4.887 13.1287C4.887 11.655 5.41012 10.4512 6.27637 9.50623C6.1245 9.16536 5.66888 7.79286 6.3945 5.93323C6.3945 5.93323 7.52513 5.57098 10.107 7.31698C11.187 7.01661 12.3345 6.86811 13.482 6.86136C14.6295 6.86811 15.777 7.01661 16.857 7.31698C19.422 5.57098 20.5526 5.93323 20.5526 5.93323C21.2782 7.79286 20.8226 9.16536 20.6876 9.50623C21.5483 10.4512 22.0714 11.655 22.0714 13.1287C22.0714 18.315 18.9158 19.4569 15.912 19.7887C16.3845 20.1937 16.8232 21.0217 16.8232 22.2862C16.8232 24.093 16.8064 25.5442 16.8064 25.983C16.8064 26.3374 17.0426 26.7592 17.7345 26.6242C23.1356 24.8535 27 19.791 27 13.8341C27 6.37873 20.9554 0.334106 13.5 0.334106Z" fill="black"/>
</svg>
