<svg width="25" height="25" viewBox="0 0 25 25" fill="none" xmlns="http://www.w3.org/2000/svg">
<path d="M0 0H25V25H0V0Z" fill="#12100E"/>
<path d="M5.96416 8.36103C5.97448 8.25936 5.9607 8.15669 5.92393 8.06133C5.88716 7.96598 5.82845 7.88063 5.75254 7.81221L4.18438 5.92334V5.64111H9.05352L12.8171 13.895L16.1259 5.64111H20.7675V5.92334L19.4268 7.20879C19.3701 7.25202 19.3262 7.30991 19.3 7.37621C19.2737 7.44252 19.2661 7.51473 19.2778 7.58506V17.0305C19.2661 17.1008 19.2737 17.173 19.3 17.2393C19.3262 17.3056 19.3701 17.3635 19.4268 17.4067L20.7362 18.6923V18.9745H14.15V18.6923L15.5064 17.3754C15.6397 17.2422 15.6397 17.2029 15.6397 16.9991V9.36426L11.8683 18.943H11.3587L6.96787 9.36436V15.7841C6.94981 15.9173 6.96231 16.0529 7.00443 16.1805C7.04654 16.3082 7.11716 16.4246 7.21094 16.5209L8.9751 18.6608V18.9431H3.97266V18.6608L5.73691 16.5209C5.82993 16.4245 5.89897 16.3076 5.93846 16.1796C5.97795 16.0516 5.98679 15.9161 5.96426 15.7841V8.36103H5.96416Z" fill="white"/>
</svg>
