<svg width="122" height="111" viewBox="0 0 122 111" fill="none" xmlns="http://www.w3.org/2000/svg">
<circle cx="60.8531" cy="50.7789" r="43.43" stroke="#272528" stroke-width="6.69777"/>
<mask id="path-2-outside-1" maskUnits="userSpaceOnUse" x="0" y="-0.717773" width="46" height="58" fill="black">
<rect fill="white" y="-0.717773" width="46" height="58"/>
<path fill-rule="evenodd" clip-rule="evenodd" d="M22.7455 25.3755C28.2941 25.3755 32.7922 20.8775 32.7922 15.3289C32.7922 9.78027 28.2941 5.28223 22.7455 5.28223C17.1969 5.28223 12.6988 9.78027 12.6988 15.3289C12.6988 20.8775 17.1969 25.3755 22.7455 25.3755ZM23.3252 27.5753C13.7567 27.5753 6 35.332 6 44.9004V48.0007C6 50.1158 7.71465 51.8305 9.82978 51.8305H36.8205C38.9357 51.8305 40.6503 50.1158 40.6503 48.0007V44.9004C40.6503 35.332 32.8936 27.5753 23.3252 27.5753Z"/>
</mask>
<path fill-rule="evenodd" clip-rule="evenodd" d="M22.7455 25.3755C28.2941 25.3755 32.7922 20.8775 32.7922 15.3289C32.7922 9.78027 28.2941 5.28223 22.7455 5.28223C17.1969 5.28223 12.6988 9.78027 12.6988 15.3289C12.6988 20.8775 17.1969 25.3755 22.7455 25.3755ZM23.3252 27.5753C13.7567 27.5753 6 35.332 6 44.9004V48.0007C6 50.1158 7.71465 51.8305 9.82978 51.8305H36.8205C38.9357 51.8305 40.6503 50.1158 40.6503 48.0007V44.9004C40.6503 35.332 32.8936 27.5753 23.3252 27.5753Z" fill="#FF4A4A"/>
<path d="M27.7688 15.3289C27.7688 18.1032 25.5198 20.3522 22.7455 20.3522V30.3989C31.0684 30.3989 37.8155 23.6518 37.8155 15.3289H27.7688ZM22.7455 10.3056C25.5198 10.3056 27.7688 12.5546 27.7688 15.3289H37.8155C37.8155 7.00596 31.0684 0.258899 22.7455 0.258899V10.3056ZM17.7222 15.3289C17.7222 12.5546 19.9712 10.3056 22.7455 10.3056V0.258899C14.4226 0.258899 7.67552 7.00596 7.67552 15.3289H17.7222ZM22.7455 20.3522C19.9712 20.3522 17.7222 18.1032 17.7222 15.3289H7.67552C7.67552 23.6518 14.4226 30.3989 22.7455 30.3989V20.3522ZM11.0233 44.9004C11.0233 38.1063 16.531 32.5986 23.3252 32.5986V22.5519C10.9824 22.5519 0.976672 32.5577 0.976672 44.9004H11.0233ZM11.0233 48.0007V44.9004H0.976672V48.0007H11.0233ZM9.82978 46.8072C10.489 46.8072 11.0233 47.3415 11.0233 48.0007H0.976672C0.976672 52.8902 4.94035 56.8538 9.82978 56.8538V46.8072ZM36.8205 46.8072H9.82978V56.8538H36.8205V46.8072ZM35.627 48.0007C35.627 47.3415 36.1614 46.8072 36.8205 46.8072V56.8538C41.71 56.8538 45.6736 52.8902 45.6736 48.0007H35.627ZM35.627 44.9004V48.0007H45.6736V44.9004H35.627ZM23.3252 32.5986C30.1193 32.5986 35.627 38.1063 35.627 44.9004H45.6736C45.6736 32.5577 35.6679 22.5519 23.3252 22.5519V32.5986Z" fill="white" mask="url(#path-2-outside-1)"/>
<mask id="path-4-outside-2" maskUnits="userSpaceOnUse" x="75.3496" y="-0.717773" width="46" height="58" fill="black">
<rect fill="white" x="75.3496" y="-0.717773" width="46" height="58"/>
<path fill-rule="evenodd" clip-rule="evenodd" d="M98.0951 25.3755C103.644 25.3755 108.142 20.8775 108.142 15.3289C108.142 9.78027 103.644 5.28223 98.0951 5.28223C92.5465 5.28223 88.0485 9.78027 88.0485 15.3289C88.0485 20.8775 92.5465 25.3755 98.0951 25.3755ZM98.6748 27.5753C89.1063 27.5753 81.3496 35.332 81.3496 44.9004V48.0007C81.3496 50.1158 83.0643 51.8305 85.1794 51.8305H112.17C114.285 51.8305 116 50.1159 116 48.0007V44.9004C116 35.332 108.243 27.5753 98.6748 27.5753Z"/>
</mask>
<path fill-rule="evenodd" clip-rule="evenodd" d="M98.0951 25.3755C103.644 25.3755 108.142 20.8775 108.142 15.3289C108.142 9.78027 103.644 5.28223 98.0951 5.28223C92.5465 5.28223 88.0485 9.78027 88.0485 15.3289C88.0485 20.8775 92.5465 25.3755 98.0951 25.3755ZM98.6748 27.5753C89.1063 27.5753 81.3496 35.332 81.3496 44.9004V48.0007C81.3496 50.1158 83.0643 51.8305 85.1794 51.8305H112.17C114.285 51.8305 116 50.1159 116 48.0007V44.9004C116 35.332 108.243 27.5753 98.6748 27.5753Z" fill="#FF4A4A"/>
<path d="M103.118 15.3289C103.118 18.1032 100.869 20.3522 98.0951 20.3522V30.3989C106.418 30.3989 113.165 23.6518 113.165 15.3289H103.118ZM98.0951 10.3056C100.869 10.3056 103.118 12.5546 103.118 15.3289H113.165C113.165 7.00596 106.418 0.258899 98.0951 0.258899V10.3056ZM93.0718 15.3289C93.0718 12.5546 95.3208 10.3056 98.0951 10.3056V0.258899C89.7722 0.258899 83.0251 7.00596 83.0251 15.3289H93.0718ZM98.0951 20.3522C95.3208 20.3522 93.0718 18.1032 93.0718 15.3289H83.0251C83.0251 23.6518 89.7722 30.3989 98.0951 30.3989V20.3522ZM86.3729 44.9004C86.3729 38.1063 91.8807 32.5986 98.6748 32.5986V22.5519C86.332 22.5519 76.3263 32.5577 76.3263 44.9004H86.3729ZM86.3729 48.0007V44.9004H76.3263V48.0007H86.3729ZM85.1794 46.8072C85.8386 46.8072 86.3729 47.3415 86.3729 48.0007H76.3263C76.3263 52.8902 80.29 56.8538 85.1794 56.8538V46.8072ZM112.17 46.8072H85.1794V56.8538H112.17V46.8072ZM110.977 48.0007C110.977 47.3415 111.511 46.8072 112.17 46.8072V56.8538C117.06 56.8538 121.023 52.8902 121.023 48.0007H110.977ZM110.977 44.9004V48.0007H121.023V44.9004H110.977ZM98.6748 32.5986C105.469 32.5986 110.977 38.1063 110.977 44.9004H121.023C121.023 32.5577 111.017 22.5519 98.6748 22.5519V32.5986Z" fill="white" mask="url(#path-4-outside-2)"/>
<mask id="path-6-outside-3" maskUnits="userSpaceOnUse" x="38.5137" y="52.8643" width="46" height="58" fill="black">
<rect fill="white" x="38.5137" y="52.8643" width="46" height="58"/>
<path fill-rule="evenodd" clip-rule="evenodd" d="M61.2592 78.9576C66.8078 78.9576 71.3058 74.4595 71.3058 68.9109C71.3058 63.3623 66.8078 58.8643 61.2592 58.8643C55.7106 58.8643 51.2125 63.3623 51.2125 68.9109C51.2125 74.4595 55.7106 78.9576 61.2592 78.9576ZM61.8388 81.1573C52.2704 81.1573 44.5137 88.914 44.5137 98.4825V101.583C44.5137 103.698 46.2283 105.413 48.3434 105.413H75.3342C77.4493 105.413 79.164 103.698 79.164 101.583V98.4825C79.164 88.914 71.4073 81.1573 61.8388 81.1573Z"/>
</mask>
<path fill-rule="evenodd" clip-rule="evenodd" d="M61.2592 78.9576C66.8078 78.9576 71.3058 74.4595 71.3058 68.9109C71.3058 63.3623 66.8078 58.8643 61.2592 58.8643C55.7106 58.8643 51.2125 63.3623 51.2125 68.9109C51.2125 74.4595 55.7106 78.9576 61.2592 78.9576ZM61.8388 81.1573C52.2704 81.1573 44.5137 88.914 44.5137 98.4825V101.583C44.5137 103.698 46.2283 105.413 48.3434 105.413H75.3342C77.4493 105.413 79.164 103.698 79.164 101.583V98.4825C79.164 88.914 71.4073 81.1573 61.8388 81.1573Z" fill="#FF4A4A"/>
<path d="M66.2825 68.9109C66.2825 71.6852 64.0335 73.9342 61.2592 73.9342V83.9809C69.5821 83.9809 76.3292 77.2338 76.3292 68.9109H66.2825ZM61.2592 63.8876C64.0335 63.8876 66.2825 66.1366 66.2825 68.9109H76.3292C76.3292 60.588 69.5821 53.8409 61.2592 53.8409V63.8876ZM56.2358 68.9109C56.2358 66.1366 58.4849 63.8876 61.2592 63.8876V53.8409C52.9362 53.8409 46.1892 60.588 46.1892 68.9109H56.2358ZM61.2592 73.9342C58.4849 73.9342 56.2358 71.6852 56.2358 68.9109H46.1892C46.1892 77.2338 52.9362 83.9809 61.2592 83.9809V73.9342ZM49.537 98.4825C49.537 91.6883 55.0447 86.1806 61.8388 86.1806V76.134C49.4961 76.134 39.4903 86.1397 39.4903 98.4825H49.537ZM49.537 101.583V98.4825H39.4903V101.583H49.537ZM48.3434 100.389C49.0026 100.389 49.537 100.924 49.537 101.583H39.4903C39.4903 106.472 43.454 110.436 48.3434 110.436V100.389ZM75.3342 100.389H48.3434V110.436H75.3342V100.389ZM74.1407 101.583C74.1407 100.924 74.675 100.389 75.3342 100.389V110.436C80.2237 110.436 84.1873 106.472 84.1873 101.583H74.1407ZM74.1407 98.4825V101.583H84.1873V98.4825H74.1407ZM61.8388 86.1806C68.6329 86.1806 74.1407 91.6883 74.1407 98.4825H84.1873C84.1873 86.1397 74.1816 76.134 61.8388 76.134V86.1806Z" fill="white" mask="url(#path-6-outside-3)"/>
<path d="M19.3955 18.6777C20.3878 19.9413 23.1165 21.7103 26.0933 18.6777H19.3955Z" stroke="white" stroke-width="1.67444" stroke-linecap="round" stroke-linejoin="round"/>
<path d="M94.7451 18.6777C95.7374 19.9413 98.4661 21.7103 101.443 18.6777H94.7451Z" stroke="white" stroke-width="1.67444" stroke-linecap="round" stroke-linejoin="round"/>
<path d="M57.9072 72.2598C58.8995 73.5233 61.6282 75.2923 64.605 72.2598H57.9072Z" stroke="white" stroke-width="1.67444" stroke-linecap="round" stroke-linejoin="round"/>
</svg>
