<svg width="65" height="65" viewBox="0 0 65 65" fill="none" xmlns="http://www.w3.org/2000/svg">
<g clip-path="url(#clip0)">
<circle cx="32.4155" cy="30.642" r="25.642" stroke="#272528" stroke-width="4"/>
<mask id="path-2-outside-1" maskUnits="userSpaceOnUse" x="-3" y="0.756836" width="27" height="34" fill="black">
<rect fill="white" x="-3" y="0.756836" width="27" height="34"/>
<path fill-rule="evenodd" clip-rule="evenodd" d="M9.89441 15.6301C13.1731 15.6301 15.8311 12.9722 15.8311 9.69348C15.8311 6.41476 13.1731 3.75684 9.89441 3.75684C6.61569 3.75684 3.95777 6.41476 3.95777 9.69348C3.95777 12.9722 6.61569 15.6301 9.89441 15.6301ZM10.2376 16.9297C4.58352 16.9297 0 21.5133 0 27.1673V28.9993C0 30.2491 1.0132 31.2623 2.26304 31.2623H18.2121C19.4619 31.2623 20.4751 30.2491 20.4751 28.9993V27.1673C20.4751 21.5133 15.8916 16.9297 10.2376 16.9297Z"/>
</mask>
<path fill-rule="evenodd" clip-rule="evenodd" d="M9.89441 15.6301C13.1731 15.6301 15.8311 12.9722 15.8311 9.69348C15.8311 6.41476 13.1731 3.75684 9.89441 3.75684C6.61569 3.75684 3.95777 6.41476 3.95777 9.69348C3.95777 12.9722 6.61569 15.6301 9.89441 15.6301ZM10.2376 16.9297C4.58352 16.9297 0 21.5133 0 27.1673V28.9993C0 30.2491 1.0132 31.2623 2.26304 31.2623H18.2121C19.4619 31.2623 20.4751 30.2491 20.4751 28.9993V27.1673C20.4751 21.5133 15.8916 16.9297 10.2376 16.9297Z" fill="#FF4A4A"/>
<path d="M12.8627 9.69348C12.8627 11.3328 11.5338 12.6618 9.89441 12.6618V18.5985C14.8125 18.5985 18.7994 14.6116 18.7994 9.69348H12.8627ZM9.89441 6.72516C11.5338 6.72516 12.8627 8.05412 12.8627 9.69348H18.7994C18.7994 4.7754 14.8125 0.788512 9.89441 0.788512V6.72516ZM6.92609 9.69348C6.92609 8.05412 8.25505 6.72516 9.89441 6.72516V0.788512C4.97633 0.788512 0.989441 4.7754 0.989441 9.69348H6.92609ZM9.89441 12.6618C8.25505 12.6618 6.92609 11.3328 6.92609 9.69348H0.989441C0.989441 14.6116 4.97633 18.5985 9.89441 18.5985V12.6618ZM2.96832 27.1673C2.96832 23.1526 6.22288 19.8981 10.2376 19.8981V13.9614C2.94416 13.9614 -2.96832 19.8739 -2.96832 27.1673H2.96832ZM2.96832 28.9993V27.1673H-2.96832V28.9993H2.96832ZM2.26304 28.294C2.65256 28.294 2.96832 28.6098 2.96832 28.9993H-2.96832C-2.96832 31.8885 -0.626165 34.2307 2.26304 34.2307V28.294ZM18.2121 28.294H2.26304V34.2307H18.2121V28.294ZM17.5068 28.9993C17.5068 28.6098 17.8226 28.294 18.2121 28.294V34.2307C21.1013 34.2307 23.4435 31.8885 23.4435 28.9993H17.5068ZM17.5068 27.1673V28.9993H23.4435V27.1673H17.5068ZM10.2376 19.8981C14.2523 19.8981 17.5068 23.1526 17.5068 27.1673H23.4435C23.4435 19.8739 17.531 13.9614 10.2376 13.9614V19.8981Z" fill="white" mask="url(#path-2-outside-1)"/>
<mask id="path-4-outside-2" maskUnits="userSpaceOnUse" x="19.7578" y="32.4199" width="27" height="34" fill="black">
<rect fill="white" x="19.7578" y="32.4199" width="27" height="34"/>
<path fill-rule="evenodd" clip-rule="evenodd" d="M32.6522 47.2932C35.9309 47.2932 38.5889 44.6353 38.5889 41.3566C38.5889 38.0778 35.9309 35.4199 32.6522 35.4199C29.3735 35.4199 26.7156 38.0778 26.7156 41.3566C26.7156 44.6353 29.3735 47.2932 32.6522 47.2932ZM32.9954 48.5928C27.3413 48.5928 22.7578 53.1763 22.7578 58.8304V60.6624C22.7578 61.9122 23.771 62.9254 25.0209 62.9254H40.9699C42.2198 62.9254 43.233 61.9122 43.233 60.6624V58.8304C43.233 53.1763 38.6494 48.5928 32.9954 48.5928Z"/>
</mask>
<path fill-rule="evenodd" clip-rule="evenodd" d="M32.6522 47.2932C35.9309 47.2932 38.5889 44.6353 38.5889 41.3566C38.5889 38.0778 35.9309 35.4199 32.6522 35.4199C29.3735 35.4199 26.7156 38.0778 26.7156 41.3566C26.7156 44.6353 29.3735 47.2932 32.6522 47.2932ZM32.9954 48.5928C27.3413 48.5928 22.7578 53.1763 22.7578 58.8304V60.6624C22.7578 61.9122 23.771 62.9254 25.0209 62.9254H40.9699C42.2198 62.9254 43.233 61.9122 43.233 60.6624V58.8304C43.233 53.1763 38.6494 48.5928 32.9954 48.5928Z" fill="#FF4A4A"/>
<path d="M35.6205 41.3566C35.6205 42.9959 34.2916 44.3249 32.6522 44.3249V50.2615C37.5703 50.2615 41.5572 46.2746 41.5572 41.3566H35.6205ZM32.6522 38.3882C34.2916 38.3882 35.6205 39.7172 35.6205 41.3566H41.5572C41.5572 36.4385 37.5703 32.4516 32.6522 32.4516V38.3882ZM29.6839 41.3566C29.6839 39.7172 31.0129 38.3882 32.6522 38.3882V32.4516C27.7341 32.4516 23.7473 36.4385 23.7473 41.3566H29.6839ZM32.6522 44.3249C31.0129 44.3249 29.6839 42.9959 29.6839 41.3566H23.7473C23.7473 46.2746 27.7341 50.2615 32.6522 50.2615V44.3249ZM25.7261 58.8304C25.7261 54.8157 28.9807 51.5611 32.9954 51.5611V45.6245C25.702 45.6245 19.7895 51.537 19.7895 58.8304H25.7261ZM25.7261 60.6624V58.8304H19.7895V60.6624H25.7261ZM25.0209 59.9571C25.4104 59.9571 25.7261 60.2729 25.7261 60.6624H19.7895C19.7895 63.5516 22.1316 65.8937 25.0209 65.8937V59.9571ZM40.9699 59.9571H25.0209V65.8937H40.9699V59.9571ZM40.2646 60.6624C40.2646 60.2729 40.5804 59.9571 40.9699 59.9571V65.8937C43.8591 65.8937 46.2013 63.5516 46.2013 60.6624H40.2646ZM40.2646 58.8304V60.6624H46.2013V58.8304H40.2646ZM32.9954 51.5611C37.0101 51.5611 40.2646 54.8157 40.2646 58.8304H46.2013C46.2013 51.537 40.2888 45.6245 32.9954 45.6245V51.5611Z" fill="white" mask="url(#path-4-outside-2)"/>
<path d="M7.91602 11.6729C8.50235 12.4195 10.1148 13.4648 11.8738 11.6729H7.91602Z" stroke="white" stroke-width="0.989441" stroke-linecap="round" stroke-linejoin="round"/>
<mask id="path-7-outside-3" maskUnits="userSpaceOnUse" x="41.5254" y="0.757812" width="27" height="34" fill="black">
<rect fill="white" x="41.5254" y="0.757812" width="27" height="34"/>
<path fill-rule="evenodd" clip-rule="evenodd" d="M54.4198 15.6311C57.6985 15.6311 60.3565 12.9732 60.3565 9.69446C60.3565 6.41574 57.6985 3.75781 54.4198 3.75781C51.1411 3.75781 48.4832 6.41574 48.4832 9.69446C48.4832 12.9732 51.1411 15.6311 54.4198 15.6311ZM54.763 16.9307C49.1089 16.9307 44.5254 21.5142 44.5254 27.1683V29.0003C44.5254 30.2501 45.5386 31.2633 46.7884 31.2633H62.7375C63.9873 31.2633 65.0005 30.2501 65.0005 29.0003V27.1683C65.0005 21.5142 60.417 16.9307 54.763 16.9307Z"/>
</mask>
<path fill-rule="evenodd" clip-rule="evenodd" d="M54.4198 15.6311C57.6985 15.6311 60.3565 12.9732 60.3565 9.69446C60.3565 6.41574 57.6985 3.75781 54.4198 3.75781C51.1411 3.75781 48.4832 6.41574 48.4832 9.69446C48.4832 12.9732 51.1411 15.6311 54.4198 15.6311ZM54.763 16.9307C49.1089 16.9307 44.5254 21.5142 44.5254 27.1683V29.0003C44.5254 30.2501 45.5386 31.2633 46.7884 31.2633H62.7375C63.9873 31.2633 65.0005 30.2501 65.0005 29.0003V27.1683C65.0005 21.5142 60.417 16.9307 54.763 16.9307Z" fill="#FF4A4A"/>
<path d="M57.3881 9.69446C57.3881 11.3338 56.0592 12.6628 54.4198 12.6628V18.5994C59.3379 18.5994 63.3248 14.6125 63.3248 9.69446H57.3881ZM54.4198 6.72614C56.0592 6.72614 57.3881 8.0551 57.3881 9.69446H63.3248C63.3248 4.77638 59.3379 0.789489 54.4198 0.789489V6.72614ZM51.4515 9.69446C51.4515 8.0551 52.7804 6.72614 54.4198 6.72614V0.789489C49.5017 0.789489 45.5148 4.77638 45.5148 9.69446H51.4515ZM54.4198 12.6628C52.7804 12.6628 51.4515 11.3338 51.4515 9.69446H45.5148C45.5148 14.6125 49.5017 18.5994 54.4198 18.5994V12.6628ZM47.4937 27.1683C47.4937 23.1536 50.7483 19.899 54.763 19.899V13.9624C47.4695 13.9624 41.5571 19.8749 41.5571 27.1683H47.4937ZM47.4937 29.0003V27.1683H41.5571V29.0003H47.4937ZM46.7884 28.295C47.178 28.295 47.4937 28.6108 47.4937 29.0003H41.5571C41.5571 31.8895 43.8992 34.2316 46.7884 34.2316V28.295ZM62.7375 28.295H46.7884V34.2316H62.7375V28.295ZM62.0322 29.0003C62.0322 28.6108 62.348 28.295 62.7375 28.295V34.2316C65.6267 34.2316 67.9689 31.8895 67.9689 29.0003H62.0322ZM62.0322 27.1683V29.0003H67.9689V27.1683H62.0322ZM54.763 19.899C58.7777 19.899 62.0322 23.1536 62.0322 27.1683H67.9689C67.9689 19.8749 62.0564 13.9624 54.763 13.9624V19.899Z" fill="white" mask="url(#path-7-outside-3)"/>
<path d="M52.4414 11.6738C53.0277 12.4205 54.6402 13.4658 56.3992 11.6738H52.4414Z" stroke="white" stroke-width="0.989441" stroke-linecap="round" stroke-linejoin="round"/>
<path d="M30.6719 43.335C31.2582 44.0816 32.8706 45.1269 34.6296 43.335H30.6719Z" stroke="white" stroke-width="0.989441" stroke-linecap="round" stroke-linejoin="round"/>
</g>
<defs>
<clipPath id="clip0">
<rect width="65" height="65" fill="white"/>
</clipPath>
</defs>
</svg>
