<svg width="65" height="65" viewBox="0 0 65 65" fill="none" xmlns="http://www.w3.org/2000/svg">
<g clip-path="url(#clip0)">
<circle cx="32.436" cy="32.436" r="26.3735" stroke="#272528" stroke-width="4"/>
<path d="M24.0059 43.0236C22.4556 43.0236 21.3281 41.7552 21.3281 40.3459V30.9033C21.3281 29.353 22.5965 28.2256 24.0059 28.2256C25.5561 28.2256 26.6836 29.494 26.6836 30.9033V40.3459C26.6836 41.8961 25.5561 43.0236 24.0059 43.0236Z" fill="white" stroke="#FF4A4A" stroke-width="3" stroke-miterlimit="10" stroke-linecap="round" stroke-linejoin="round"/>
<path d="M27.674 41.8933C28.0968 42.3161 28.6606 42.598 29.2243 42.7389L36.8347 43.5845C38.8078 43.8664 40.6399 42.4571 40.9218 40.484L42.613 31.8871C42.8948 30.3368 41.7674 28.9275 40.2171 28.9275L36.8347 28.7865C36.271 28.7865 35.9891 28.2228 36.271 27.8L38.385 23.7129C38.9487 22.5855 38.5259 21.3171 37.3984 20.6124C36.4119 20.0487 35.2844 20.3305 34.5798 21.0352L26.6875 29.7731V39.2156C26.6875 40.3431 27.1103 41.1887 27.674 41.8933Z" fill="white" stroke="#FF4A4A" stroke-width="3" stroke-miterlimit="10" stroke-linecap="round" stroke-linejoin="round"/>
<circle cx="32.5" cy="6.09375" r="7.10938" fill="#FF4A4A" stroke="white" stroke-width="2.03125"/>
<path d="M30.4688 8.125C31.0706 8.89141 32.7257 9.96439 34.5312 8.125H30.4688Z" stroke="white" stroke-width="1.01562" stroke-linecap="round" stroke-linejoin="round"/>
<circle cx="32.5" cy="58.9062" r="7.10938" fill="#FF4A4A" stroke="white" stroke-width="2.03125"/>
<path d="M30.4688 60.9375C31.0706 61.7039 32.7257 62.7769 34.5312 60.9375H30.4688Z" stroke="white" stroke-width="1.01562" stroke-linecap="round" stroke-linejoin="round"/>
<circle cx="6.09375" cy="32.5" r="7.10938" fill="#FF4A4A" stroke="white" stroke-width="2.03125"/>
<path d="M4.0625 34.5312C4.66435 35.2977 6.31944 36.3706 8.125 34.5312H4.0625Z" stroke="white" stroke-width="1.01562" stroke-linecap="round" stroke-linejoin="round"/>
<circle cx="58.9062" cy="32.5" r="7.10938" fill="#FF4A4A" stroke="white" stroke-width="2.03125"/>
<path d="M56.875 34.5312C57.4769 35.2977 59.1319 36.3706 60.9375 34.5312H56.875Z" stroke="white" stroke-width="1.01562" stroke-linecap="round" stroke-linejoin="round"/>
</g>
<defs>
<clipPath id="clip0">
<rect width="65" height="65" fill="white"/>
</clipPath>
</defs>
</svg>
