<svg id="Group_10" data-name="Group 10" xmlns="http://www.w3.org/2000/svg" viewBox="0 0 137 34.315"><defs><style>.cls-1{fill:none}.cls-3{fill:#736777;opacity:.52}</style><clipPath id="clip-path"><path id="Clip_2" data-name="Clip 2" class="cls-1" d="M0 0h42.606v34.02H0z" transform="translate(.089 .034)"/></clipPath></defs><g id="Group_3" data-name="Group 3" transform="translate(47.151 .262)"><path id="Clip_2-2" data-name="Clip 2" class="cls-1" d="M0 0h42.606v34.02H0z" transform="translate(.089 .034)"/><g id="Group_3-2" data-name="Group 3" clip-path="url(#clip-path)"><path id="Fill_1" data-name="Fill 1" class="cls-3" d="M40.635 34.02h-5.794a1.968 1.968 0 0 1-1.971-1.965V16.786L22.7 23.145a2.634 2.634 0 0 1-2.792 0l-10.172-6.36v15.27a1.968 1.968 0 0 1-1.971 1.965H1.971A1.968 1.968 0 0 1 0 32.055V2.625A2.628 2.628 0 0 1 4.112.464L20.19 11.445a1.974 1.974 0 0 0 2.228 0L38.493.464a2.627 2.627 0 0 1 4.113 2.16v29.431a1.968 1.968 0 0 1-1.971 1.965" transform="translate(.089 .034)"/></g></g><path id="Fill_4" data-name="Fill 4" class="cls-3" d="M38.511 34.054H2.615A2.612 2.612 0 0 1 0 31.444V1.957A1.959 1.959 0 0 1 1.961 0h5.767a1.959 1.959 0 0 1 1.961 1.957v22.43h21.748V1.957A1.958 1.958 0 0 1 33.4 0h5.767a1.959 1.959 0 0 1 1.961 1.957v29.488a2.612 2.612 0 0 1-2.615 2.609"/><path id="Fill_6" data-name="Fill 6" class="cls-3" d="M2.615 0h35.9a2.612 2.612 0 0 1 2.615 2.609V32.1a1.959 1.959 0 0 1-1.961 1.957H33.4a1.959 1.959 0 0 1-1.963-1.957V10.971a1.306 1.306 0 0 0-1.308-1.3H11a1.306 1.306 0 0 0-1.308 1.3V32.1a1.959 1.959 0 0 1-1.961 1.957h-5.77A1.959 1.959 0 0 1 0 32.1V2.609A2.612 2.612 0 0 1 2.615 0" transform="translate(95.874)"/><path id="Fill_8" data-name="Fill 8" class="cls-3" d="M0 1.943v5.806a1.953 1.953 0 0 0 1.963 1.943h5.766a1.953 1.953 0 0 0 1.963-1.943V1.943A1.953 1.953 0 0 0 7.729 0H1.963A1.953 1.953 0 0 0 0 1.943" transform="translate(111.591 15.979)"/></svg>