<svg xmlns="http://www.w3.org/2000/svg" fill="none" viewBox="0 0 66 60" width="66px" height="60px">
  <path stroke="#2D2E33" stroke-linecap="round" stroke-width="2.71" d="M32.5005 1.355v43.3317M1.355 6.77098h62.29"/>
  <path fill="#2D2E33" d="M43.3334 52.1354c0-1.9753-1.1771-3.8697-3.2722-5.2665-2.0951-1.3967-4.9367-2.1814-7.8997-2.1814s-5.8046.7847-7.8997 2.1814c-2.0951 1.3968-3.2722 3.2912-3.2722 5.2665h22.3438Z"/>
  <path stroke="#2D2E33" stroke-linejoin="bevel" stroke-width="2.71" d="M5.07812 30.8105 12.8646 8.4668l7.7864 22.3437"/>
  <path fill="#FF4A4A" stroke="#2D2E33" stroke-width="2.71" d="M4.77305 39.4273c-1.88871-2.0875-3.07406-4.8408-3.3537-7.7901H24.3105c-.2797 2.9493-1.465 5.7026-3.3537 7.7901-2.1714 2.3999-5.0856 3.7187-8.0919 3.7187-3.00627 0-5.92049-1.3188-8.09185-3.7187Z"/>
  <path stroke="#2D2E33" stroke-linejoin="bevel" stroke-width="2.71" d="m44.3774 30.8086 7.7865-22.34376 7.7865 22.34376"/>
  <path fill="#FF4A4A" stroke="#2D2E33" stroke-width="2.71" d="M44.0724 39.4254c-1.8887-2.0876-3.0741-4.8409-3.3537-7.7901h22.8911c-.2797 2.9492-1.465 5.7025-3.3537 7.7901-2.1714 2.3999-5.0856 3.7186-8.0919 3.7186-3.0063 0-5.9205-1.3187-8.0918-3.7186Z"/>
</svg>
