<svg width="42" height="52" viewBox="0 0 42 52" fill="none" xmlns="http://www.w3.org/2000/svg">
<path d="M20.8173 52.0001C9.32557 51.9872 0.012945 42.7021 0 31.2444V25.7118H7.22759V31.2462C7.23256 38.7294 13.3119 44.7964 20.8173 44.8083C28.326 44.8043 34.414 38.74 34.425 31.2534V25.7118H41.6526V31.2462C41.6376 42.7098 32.3149 51.9962 20.8173 52.0001Z" fill="#724CF9"/>
<path d="M20.9067 41.5585C15.108 41.5506 10.4093 36.8657 10.4014 31.0843H17.629C17.6339 32.889 19.1038 34.3489 20.9139 34.3469C22.724 34.3489 24.1938 32.889 24.1988 31.0843H31.4264C31.4184 36.8714 26.7109 41.5585 20.9067 41.5585Z" fill="#FA198B"/>
<path d="M7.19727 25.8128V18.6066C9.82655 18.6988 12.4067 17.8802 14.4989 16.2898C16.2832 14.8104 17.2767 12.5883 17.1876 10.2762H24.4152V10.6077C24.4152 16.4844 29.5648 18.5832 34.3947 18.5832V25.7894C30.127 25.8984 25.9467 24.5721 22.527 22.0242C21.8716 21.5036 21.2628 20.9274 20.7074 20.3019C20.2219 20.8444 19.6977 21.3514 19.139 21.8188C15.7468 24.4968 11.523 25.9094 7.19727 25.8128Z" fill="#724CF9"/>
<path d="M20.8631 7.65661C22.9837 7.65661 24.7027 5.94262 24.7027 3.82831C24.7027 1.71399 22.9837 0 20.8631 0C18.7425 0 17.0234 1.71399 17.0234 3.82831C17.0234 5.94262 18.7425 7.65661 20.8631 7.65661Z" fill="#FA198B"/>
</svg>
