<svg width="20" height="17" fill="none" xmlns="http://www.w3.org/2000/svg"><path d="M20 2.012a7.927 7.927 0 01-2.357.676A4.276 4.276 0 0019.447.314c-.805.5-1.686.852-2.605 1.041A4.017 4.017 0 0013.847 0C11.58 0 9.743 1.922 9.743 4.292c0 .336.037.663.107.978C6.44 5.09 3.416 3.382 1.392.786a4.423 4.423 0 00-.555 2.157c0 1.49.724 2.803 1.825 3.572a3.95 3.95 0 01-1.858-.537v.054c0 2.08 1.414 3.814 3.29 4.209a3.933 3.933 0 01-1.852.073c.522 1.705 2.037 2.946 3.833 2.98A8.007 8.007 0 010 15.073 11.247 11.247 0 006.29 17c7.547 0 11.674-6.54 11.674-12.21 0-.187-.003-.372-.011-.556A8.562 8.562 0 0020 2.012z" fill="#000" /></svg>