<svg width="25" height="29" viewBox="0 0 25 29" fill="none" xmlns="http://www.w3.org/2000/svg">
<path d="M22.0714 0.214111H2.92857C1.31429 0.214111 0 1.52234 0 3.14341V22.3687C0 23.9898 1.31429 25.298 2.92857 25.298H19.1286L18.3714 22.6673L20.2 24.3595L21.9286 25.9521L25 28.6539V3.14341C25 1.52234 23.6857 0.214111 22.0714 0.214111ZM16.5571 18.7853C16.5571 18.7853 16.0429 18.1738 15.6143 17.6335C17.4857 17.1073 18.2 15.9413 18.2 15.9413C17.6143 16.3252 17.0571 16.5954 16.5571 16.7803C15.8429 17.0789 15.1571 17.278 14.4857 17.3917C13.1143 17.6477 11.8571 17.5766 10.7857 17.3775C9.97143 17.2211 9.27143 16.9936 8.68571 16.7661C8.35714 16.6381 8 16.4817 7.64286 16.2826C7.6 16.2541 7.55714 16.2399 7.51429 16.2115C7.48571 16.1973 7.47143 16.183 7.45714 16.1688C7.2 16.0266 7.05714 15.9271 7.05714 15.9271C7.05714 15.9271 7.74286 17.0647 9.55714 17.605C9.12857 18.1454 8.6 18.7853 8.6 18.7853C5.44286 18.6857 4.24286 16.6239 4.24286 16.6239C4.24286 12.0451 6.3 8.33367 6.3 8.33367C8.35714 6.79792 10.3143 6.84058 10.3143 6.84058L10.4571 7.01122C7.88571 7.75065 6.7 8.87402 6.7 8.87402C6.7 8.87402 7.01429 8.70339 7.54286 8.46165C9.07143 7.79331 10.2857 7.60845 10.7857 7.56579C10.8714 7.55157 10.9429 7.53735 11.0286 7.53735C11.9 7.42359 12.8857 7.39516 13.9143 7.50891C15.2714 7.66533 16.7286 8.06349 18.2143 8.87402C18.2143 8.87402 17.0857 7.80753 14.6571 7.0681L14.8571 6.84058C14.8571 6.84058 16.8143 6.79792 18.8714 8.33367C18.8714 8.33367 20.9286 12.0451 20.9286 16.6239C20.9286 16.6239 19.7143 18.6857 16.5571 18.7853Z" fill="black"/>
</svg>
