<svg width="120" height="100" viewBox="0 0 120 100" fill="none" xmlns="http://www.w3.org/2000/svg">
<mask id="mask0" mask-type="alpha" maskUnits="userSpaceOnUse" x="0" y="0" width="120" height="100">
<rect width="120" height="100" fill="#C4C4C4"/>
</mask>
<g mask="url(#mask0)">
<path fill-rule="evenodd" clip-rule="evenodd" d="M69.6042 88.2423C66.8206 85.6868 62.8962 89.5917 65.4582 92.3232L68.8415 95.9282C71.423 98.6792 75.6148 94.8199 73.118 91.9907L69.6042 88.2423Z" fill="#B20000"/>
<path fill-rule="evenodd" clip-rule="evenodd" d="M31.1417 79.3961C32.2434 78.2162 37.0479 75.8107 38.7428 74.8589C41.233 73.4573 43.7689 72.1014 46.2461 70.6802C46.709 70.4129 47.3218 70.4781 47.6542 70.8953C48.0845 71.4169 47.9215 72.1796 47.3609 72.5055L33.5732 80.4652C33.1299 80.7195 32.8431 81.1888 32.8366 81.6973C32.7779 85.4979 36.1417 87.7339 39.6424 85.6283L50.1249 79.3048C50.5813 79.031 51.1941 79.0832 51.5461 79.4874C51.9894 80.0024 51.846 80.7716 51.2918 81.1106C47.6934 83.2814 44.3165 85.6478 40.5746 87.5774C40.0922 87.8251 39.7598 88.3141 39.7532 88.8617C39.7011 92.6557 43.0649 94.8852 46.5656 92.7731L57.1003 86.4105C58.3063 85.6869 59.4015 87.5253 58.202 88.2489L49.6099 93.4184C49.2644 93.6271 49.0363 93.9986 49.0232 94.4093C48.9059 97.545 51.6243 99.4224 54.5057 97.6819L63.0195 92.5449C61.644 88.8878 63.2933 86.0911 67.0939 85.2762C66.3442 83.0141 66.4746 81.1693 68.2542 79.3961C69.0561 78.5943 69.9687 78.327 71.0183 78.0532C68.2282 72.0166 74.6298 67.688 79.3887 72.2317C80.8815 68.4051 85.0863 66.7232 88.0589 69.8914L90.4058 72.3947C94.0238 68.2226 97.6744 64.07 101.253 59.8652L87.2245 39.2065L85.4644 42.0358C84.0954 44.2327 81.9767 45.8624 79.4995 46.6121L73.0392 48.5743C72.4981 48.7373 72.3286 49.4283 72.7393 49.8195C74.1409 51.1624 76.7876 53.7113 78.111 55.0281C82.6938 59.611 75.1709 65.967 67.7979 60.0738C61.4484 54.7804 59.8904 52.4075 52.3088 56.9447C43.0453 62.4924 33.9579 68.3399 24.8899 74.2005C24.5249 74.4352 24.2837 74.8393 24.2576 75.2761C23.9903 79.3114 27.478 81.5148 31.1417 79.3961Z" fill="#FF4A4A"/>
<path fill-rule="evenodd" clip-rule="evenodd" d="M73.8078 81.0976C71.3567 78.49 66.9564 82.2906 69.5575 85.0611L76.3307 92.2711C78.0973 94.1486 81.2786 92.9426 81.3503 90.3611C81.3699 89.5983 81.0895 88.8421 80.568 88.288L73.8078 81.0976Z" fill="#B20000"/>
<path fill-rule="evenodd" clip-rule="evenodd" d="M69.1588 58.4245C73.6764 62.2186 79.4262 59.3828 76.5904 56.5471C72.9854 52.9421 69.2696 49.4414 65.5538 45.9472C64.4651 44.9237 63.0048 44.3892 61.512 44.4609L34.9993 45.7973C34.8428 45.8038 34.6798 45.7777 34.5364 45.7125L23.578 41.0123L11.5439 61.8535L21.2442 70.5303C22.5806 71.7233 24.5428 71.8797 26.0487 70.9084C34.1844 65.6802 42.3201 60.4519 50.6057 55.4649C52.8808 54.0959 56.1273 52.1076 58.8783 52.2511C62.3269 52.4206 66.6489 56.3124 69.1588 58.4245Z" fill="#B20000"/>
<path fill-rule="evenodd" clip-rule="evenodd" d="M86.4936 71.3583C83.899 68.6007 79.6878 72.5056 82.2562 75.3414L86.8521 80.2371C89.5705 82.949 93.6645 78.9985 91.0764 76.241L86.4936 71.3583Z" fill="#B20000"/>
<path fill-rule="evenodd" clip-rule="evenodd" d="M77.4389 73.34C74.8248 70.5629 70.5875 74.5265 73.2016 77.3231C76.8913 81.2736 80.5941 85.1981 84.2969 89.1355C86.9045 91.9061 91.0701 88.0273 88.5799 85.1981C84.8706 81.2476 81.1613 77.284 77.4389 73.34Z" fill="#B20000"/>
<path d="M0.579823 59.3372L20.8343 32.1791C21.8056 30.8819 23.644 30.6146 24.9413 31.5794L30.3651 35.6212C31.6624 36.5925 31.9296 38.4308 30.9648 39.7281L10.7038 66.8862C9.73248 68.1835 7.89413 68.4508 6.59685 67.486L1.17305 63.4442C-0.117709 62.4729 -0.384987 60.6345 0.579823 59.3372Z" fill="#FF4A4A"/>
<path d="M8.03036 61.9644C9.16087 61.9644 10.0773 61.048 10.0773 59.9174C10.0773 58.7869 9.16087 57.8705 8.03036 57.8705C6.89985 57.8705 5.9834 58.7869 5.9834 59.9174C5.9834 61.048 6.89985 61.9644 8.03036 61.9644Z" fill="white"/>
<path d="M112.42 59.3372L92.166 32.1791C91.1946 30.8819 89.3563 30.6146 88.059 31.5794L82.6352 35.6212C81.3379 36.5925 81.0706 38.4308 82.0354 39.7281L102.29 66.8862C103.261 68.1835 105.1 68.4508 106.397 67.486L111.821 63.4442C113.118 62.4729 113.385 60.6345 112.42 59.3372Z" fill="#B20000"/>
<path d="M104.97 61.9644C106.1 61.9644 107.017 61.048 107.017 59.9174C107.017 58.7869 106.1 57.8705 104.97 57.8705C103.839 57.8705 102.923 58.7869 102.923 59.9174C102.923 61.048 103.839 61.9644 104.97 61.9644Z" fill="white"/>
</g>
</svg>
