<svg width="235" height="54" viewBox="0 0 235 54" fill="none" xmlns="http://www.w3.org/2000/svg">
<g filter="url(#filter0_d)">
<path d="M23.15 42.49H12.935L29.9 10H4.97L2.54 20.53L8.795 13.735H19.28L2.54 46H27.74L30.08 32.77L23.15 42.49ZM23.195 14.905L19.64 23.725L17.885 24.715L17.795 22.735L23.195 14.905ZM16.895 26.56L17.12 28.63L15.32 29.485L15.05 27.505L16.895 26.56ZM12.53 32.32L14.33 31.33L14.465 33.31L8.975 41.185L12.53 32.32ZM46.3795 22.105L50.5645 29.08V18.865H31.1695L34.3645 21.655V43.21L31.1695 46H50.5645V33.76L46.6945 42.76H41.0695V33.76H43.7245L46.4695 37.225V27.1L43.7245 30.61H41.0695V22.105H46.3795ZM67.6406 43.21H63.5906V21.655L66.8306 18.865H53.6906L56.8856 21.655V43.21L53.6906 46H72.4106V31.06L67.6406 43.21ZM85.1836 18.865H75.5086L78.7036 21.655V43.21L75.5086 46H85.6786C92.8336 46 98.5036 40.6 98.5036 32.455C98.5036 24.4 92.9236 18.865 85.1836 18.865ZM85.4086 43.12V21.7C87.7936 21.7 92.1136 24.67 92.1136 32.455C92.1136 40.195 87.2986 43.12 85.4086 43.12ZM110.198 46H122.303L119.243 43.21L113.168 18.865H103.448L106.643 21.655L100.298 43.21L96.9233 46H107.138L104.168 43.66L105.788 37.63H111.143L112.493 43.75L110.198 46ZM106.643 34.39L108.668 26.74L110.423 34.39H106.643ZM127.039 46.72L122.674 42.355L127.039 38.08L131.314 42.355L127.039 46.72ZM149.637 12.745C153.597 12.745 157.557 18.775 159.267 23.725V9.1L156.252 11.305C156.252 11.305 154.272 9.1 148.467 9.1C139.782 9.1 133.887 17.02 133.887 28.045C133.887 39.025 139.782 46.945 148.467 46.945C153.462 46.945 156.252 44.785 156.252 44.785L159.267 46.99V30.88C157.512 37.405 154.272 43.3 149.637 43.3C145.407 43.3 142.347 38.485 142.347 28.045C142.347 17.605 145.407 12.745 149.637 12.745ZM139.422 22.96L138.297 24.355L137.532 22.735C138.252 19.09 139.872 15.625 142.662 13.78C140.727 16.12 139.827 19.54 139.422 22.96ZM136.992 28.09L138.162 26.47L139.332 28.09L138.162 29.665L136.992 28.09ZM142.437 42.355C139.647 40.465 137.937 36.955 137.532 33.4L138.297 31.78L139.422 33.22C139.557 36.91 140.502 40.015 142.437 42.355ZM174.114 46H186.219L183.159 43.21L177.084 18.865H167.364L170.559 21.655L164.214 43.21L160.839 46H171.054L168.084 43.66L169.704 37.63H175.059L176.409 43.75L174.114 46ZM170.559 34.39L172.584 26.74L174.339 34.39H170.559ZM198.2 29.35C195.23 27.865 192.44 26.47 192.44 24.175C192.44 22.285 193.835 21.295 196.31 21.295C199.01 21.295 201.755 22.96 203.375 27.91V18.145L201.26 19.675C199.82 18.685 197.93 18.19 195.95 18.19C191.09 18.19 187.49 20.89 187.49 25.705C187.49 30.475 190.82 32.5 194.06 34.21C197.03 35.785 199.55 37.18 199.55 39.7C199.55 42.04 197.57 43.525 195.455 43.525C192.575 43.525 190.1 41.05 187.13 34.705L187.175 46.675L189.47 44.875C191.225 46 193.07 46.675 195.725 46.675C200.63 46.675 204.905 43.435 204.905 38.53C204.905 33.31 201.665 31.15 198.2 29.35ZM229.625 21.655L232.82 18.865H220.31L223.46 21.655V30.475H216.17V21.655L219.41 18.865H206.9L210.05 21.655V43.21L206.9 46H219.41L216.17 43.21V33.67H223.46V43.21L220.31 46H232.82L229.625 43.21V21.655Z" fill="#CCB071"/>
</g>
<defs>
<filter id="filter0_d" x="0.540001" y="9.09999" width="234.28" height="41.89" filterUnits="userSpaceOnUse" color-interpolation-filters="sRGB">
<feFlood flood-opacity="0" result="BackgroundImageFix"/>
<feColorMatrix in="SourceAlpha" type="matrix" values="0 0 0 0 0 0 0 0 0 0 0 0 0 0 0 0 0 0 127 0"/>
<feOffset dy="2"/>
<feGaussianBlur stdDeviation="1"/>
<feColorMatrix type="matrix" values="0 0 0 0 0 0 0 0 0 0 0 0 0 0 0 0 0 0 0.25 0"/>
<feBlend mode="normal" in2="BackgroundImageFix" result="effect1_dropShadow"/>
<feBlend mode="normal" in="SourceGraphic" in2="effect1_dropShadow" result="shape"/>
</filter>
</defs>
</svg>
