<?xml version="1.0" standalone="no"?>
<!DOCTYPE svg PUBLIC "-//W3C//DTD SVG 20010904//EN"
 "http://www.w3.org/TR/2001/REC-SVG-20010904/DTD/svg10.dtd">
<svg version="1.0" xmlns="http://www.w3.org/2000/svg"
 width="542.000000pt" height="542.000000pt" viewBox="0 0 542.000000 542.000000"
 preserveAspectRatio="xMidYMid meet">
<metadata>
Created by potrace 1.11, written by Peter Selinger 2001-2013
</metadata>
<g transform="translate(0.000000,542.000000) scale(0.100000,-0.100000)"
fill="#000000" stroke="none">
<path d="M291 4948 c-110 -16 -211 -90 -261 -193 l-25 -50 -3 -2015 c-3 -2267
-9 -2071 76 -2155 76 -75 82 -76 583 -73 l434 3 46 27 c53 31 93 74 116 127
15 33 16 173 18 1481 1 1334 2 1447 18 1475 27 49 43 65 82 84 36 17 98 18
1329 18 1264 0 1292 0 1331 -19 43 -21 69 -48 87 -88 8 -18 12 -429 13 -1465
l1 -1440 23 -53 c26 -58 74 -105 135 -133 38 -17 77 -18 470 -19 483 0 490 0
565 70 23 21 51 60 62 86 l21 47 0 1992 c0 1095 -3 2007 -7 2026 -23 106 -111
211 -212 250 l-58 22 -2396 1 c-1317 1 -2419 -2 -2448 -6z"/>
<path d="M2235 2844 c-60 -21 -110 -67 -140 -128 l-26 -54 -1 -446 c0 -439 0
-447 22 -491 27 -55 68 -98 124 -128 41 -22 46 -22 491 -22 l450 0 44 23 c57
31 93 69 122 128 l23 49 0 440 1 441 -28 57 c-32 65 -82 110 -146 132 -64 22
-875 21 -936 -1z"/>
</g>
</svg>
