<svg width="55" height="60" viewBox="0 0 55 60" fill="none" xmlns="http://www.w3.org/2000/svg">
<path d="M54.8619 0.0828732L35.8425 7.62431H18.1492L0 0L4.10221 24.9033L0.165745 38.3702L10.4834 44.5442C15.3729 47.4447 19.7238 51.1326 23.4945 55.4006L27.5138 60L31.7403 55.1519C35.3453 51.0083 39.5718 47.4448 44.2541 44.5856L54.3646 38.3702L50.7182 24.9033L54.8619 0.0828732ZM42.3066 42.0994C38.8674 44.2127 35.6768 46.7403 32.7762 49.5166L29.2541 45.7044L42.3066 42.0994ZM25.6077 45.663L22.1685 49.4751C19.268 46.6989 16.0359 44.2541 12.5967 42.1409L25.6077 45.663ZM22.2099 41.5193L3.93646 36.547L6.42265 28.011L22.2099 41.5193ZM15.3315 9.86188L6.67127 21.174L4.01934 5.09669L15.3315 9.86188ZM44.9586 26.5608L27.4309 41.8508L9.57182 26.5608H44.9586ZM8.90884 23.4116L18.605 10.732H35.4282L46.2017 23.4116H8.90884ZM48.2735 27.8039L50.6354 36.547L32.5691 41.5193L48.2735 27.8039ZM50.8425 5.01381L48.1906 20.9669L38.7431 9.86188L50.8425 5.01381Z" fill="#131E29"/>
</svg>
