<?xml version="1.0" encoding="utf-8"?>
<!-- Generator: Adobe Illustrator 25.0.0, SVG Export Plug-In . SVG Version: 6.00 Build 0)  -->
<svg version="1.1" id="Layer_1" xmlns="http://www.w3.org/2000/svg" xmlns:xlink="http://www.w3.org/1999/xlink" x="0px" y="0px"
	 viewBox="0 0 72 44.3" style="enable-background:new 0 0 72 44.3;" xml:space="preserve">
<style type="text/css">
	.st0{fill:#F39999;}
	.st1{fill:#FFFFFF;}
	.st2{fill:#E73333;}
	.st3{fill:none;stroke:#FF4A4A;stroke-width:2;stroke-miterlimit:10;}
	.st4{fill:#FF4A4A;}
</style>
<path class="st0" d="M47.6,37.1c13.5,0,24.4-2.9,24.4-6.4c0-3.5-10.9-6.4-24.4-6.4s-24.4,2.9-24.4,6.4
	C23.2,34.3,34.1,37.1,47.6,37.1z"/>
<path class="st0" d="M72,25.6H23.2v5.1H72V25.6z"/>
<path class="st1" d="M47.6,32C61.1,32,72,29.2,72,25.6c0-3.5-10.9-6.4-24.4-6.4s-24.4,2.9-24.4,6.4C23.2,29.2,34.1,32,47.6,32z"/>
<path class="st0" d="M47.4,29.9c13.5,0,24.4-2.9,24.4-6.4c0-3.5-10.9-6.4-24.4-6.4s-24.4,2.9-24.4,6.4C22.9,27,33.9,29.9,47.4,29.9z
	"/>
<path class="st0" d="M71.8,18.4H22.9v5.1h48.8V18.4z"/>
<path class="st1" d="M47.4,24.8c13.5,0,24.4-2.9,24.4-6.4c0-3.5-10.9-6.4-24.4-6.4s-24.4,2.9-24.4,6.4
	C22.9,21.9,33.9,24.8,47.4,24.8z"/>
<path class="st0" d="M47.4,22.7c13.5,0,24.4-2.9,24.4-6.5c0-3.5-10.9-6.4-24.4-6.3c-13.5,0-24.4,2.9-24.4,6.5
	C23,19.8,33.9,22.7,47.4,22.7z"/>
<path class="st0" d="M71.8,11.1l-48.8,0.1l0,5.1l48.8-0.1L71.8,11.1z"/>
<path class="st1" d="M47.4,17.6c13.5,0,24.4-2.9,24.4-6.5c0-3.5-10.9-6.4-24.4-6.3c-13.5,0-24.4,2.9-24.4,6.5
	C22.9,14.8,33.9,17.6,47.4,17.6z"/>
<path class="st2" d="M25.3,44.3c12.3,0,22.3-9.9,22.3-22.1C47.6,9.9,37.7,0,25.3,0S3,9.9,3,22.1C3,34.4,13,44.3,25.3,44.3z"/>
<path class="st0" d="M24,43.1c11.8,0,21.3-9.5,21.3-21.1c0-11.7-9.5-21.1-21.3-21.1C12.2,0.9,2.7,10.3,2.7,22
	C2.7,33.7,12.2,43.1,24,43.1z"/>
<path class="st1" d="M21.3,42.6c11.8,0,21.3-9.5,21.3-21.1C42.6,9.8,33,0.3,21.3,0.3C9.5,0.3,0,9.8,0,21.5
	C0,33.1,9.5,42.6,21.3,42.6z"/>
<path class="st3" d="M21.3,40.1c10.4,0,18.8-8.3,18.8-18.6c0-10.3-8.4-18.6-18.8-18.6S2.5,11.2,2.5,21.5
	C2.5,31.8,10.9,40.1,21.3,40.1z"/>
<path class="st4" d="M20.5,29.1c-2.6-0.2-4.6-1.3-6.1-3l2.5-2.4c1.5,1.6,3.2,2.3,4.9,2.3c1.6,0,2.5-0.6,2.5-1.6
	c0-1.3-1.5-1.5-3.8-2.2c-2.5-0.7-5.7-1.5-5.7-4.8c0-2.9,2.5-4.8,5.7-5l0-2l2.2,0l0,2.1c2,0.3,4,1.1,5.4,2.7l-2.3,2.4
	c-1.5-1.5-3-2.1-4.6-2.1c-1.6,0-2.7,0.6-2.7,1.6c0,1.1,1.4,1.5,3.8,2.1c2.5,0.6,5.9,1.3,6,5c0,3-2.5,4.8-5.7,5.1l0,2.2l-2.2,0
	L20.5,29.1z"/>
</svg>
