<svg width="30" height="38" viewBox="0 0 30 38" fill="none" xmlns="http://www.w3.org/2000/svg">
<path d="M14.9935 37.5943C6.71668 37.585 0.00932357 30.8974 0 22.6451V18.6603H5.20562V22.6464C5.2092 28.0361 9.58782 32.4058 14.9935 32.4144C20.4016 32.4115 24.7865 28.0437 24.7944 22.6516V18.6603H30V22.6464C29.9892 30.903 23.2746 37.5914 14.9935 37.5943Z" fill="#724CF9"/>
<path d="M15.0578 30.0735C10.8814 30.0678 7.49719 26.6936 7.49146 22.5295H12.6971C12.7007 23.8294 13.7593 24.8809 15.063 24.8794C16.3668 24.8809 17.4254 23.8294 17.429 22.5295H22.6346C22.6289 26.6977 19.2383 30.0735 15.0578 30.0735Z" fill="#FA198B"/>
<path d="M5.18408 18.7337V13.5435C7.0778 13.6099 8.93614 13.0203 10.4431 11.8748C11.7282 10.8093 12.4437 9.20883 12.3796 7.54358H17.5852V7.78233C17.5852 12.015 21.2942 13.5266 24.7728 13.5266V18.7169C21.6991 18.7954 18.6882 17.8401 16.2252 16.005C15.7532 15.63 15.3147 15.215 14.9147 14.7645C14.565 15.1553 14.1874 15.5204 13.7851 15.857C11.3418 17.7858 8.29968 18.8033 5.18408 18.7337Z" fill="#724CF9"/>
<path d="M15.0267 5.65659C16.5541 5.65659 17.7922 4.4221 17.7922 2.89928C17.7922 1.37646 16.5541 0.141968 15.0267 0.141968C13.4994 0.141968 12.2612 1.37646 12.2612 2.89928C12.2612 4.4221 13.4994 5.65659 15.0267 5.65659Z" fill="#FA198B"/>
</svg>
