<svg width="14" height="14" viewBox="0 0 14 14" fill="none" xmlns="http://www.w3.org/2000/svg">
<path opacity="0.8" fill-rule="evenodd" clip-rule="evenodd" d="M13.662 0.0844727H0V13.7464H13.662V0.0844727ZM3.68477 4.74038C3.70271 4.78923 3.70944 4.84183 3.7044 4.89392H3.70445V8.69691C3.71545 8.76455 3.71113 8.83397 3.69186 8.89954C3.67258 8.96512 3.63889 9.02501 3.59349 9.07439L2.73239 10.1707V10.3153H5.17398V10.1707L4.31293 9.07439C4.26716 9.02505 4.23269 8.96542 4.21213 8.90001C4.19158 8.83461 4.18548 8.76515 4.19429 8.69691V5.40794L6.33736 10.3153H6.58606L8.42684 5.40789V9.3194C8.42684 9.42381 8.42684 9.44393 8.36178 9.51217L7.69973 10.1868V10.3314H10.9143V10.1868L10.2752 9.52823C10.2475 9.50608 10.2261 9.47642 10.2133 9.44245C10.2005 9.40848 10.1968 9.37149 10.2025 9.33546V4.49637C10.1968 4.46034 10.2005 4.42335 10.2133 4.38938C10.2261 4.35541 10.2475 4.32575 10.2752 4.3036L10.9296 3.64504V3.50045H8.66411L7.04917 7.7291L5.21225 3.50045H2.83573V3.64504L3.60112 4.61275C3.63816 4.6478 3.66682 4.69153 3.68477 4.74038Z" fill="black" fill-opacity="0.75"/>
</svg>
