<svg width="27" height="27" viewBox="0 0 27 27" fill="none" xmlns="http://www.w3.org/2000/svg">
<path d="M13.5 0.334229C6.04125 0.334229 0 6.37885 0 13.8342C0 19.8001 3.86775 24.8592 9.23063 26.6424C9.90563 26.7695 10.1531 26.3521 10.1531 25.9932C10.1531 25.6726 10.1419 24.8232 10.1363 23.6982C6.381 24.5127 5.589 21.887 5.589 21.887C4.97475 20.3289 4.08712 19.9126 4.08712 19.9126C2.86425 19.0756 4.18162 19.0925 4.18162 19.0925C5.53725 19.187 6.24937 20.483 6.24937 20.483C7.45312 22.5474 9.4095 21.9511 10.1813 21.6057C10.3028 20.7327 10.6504 20.1376 11.0363 19.8001C8.03813 19.4626 4.887 18.3016 4.887 13.1289C4.887 11.6551 5.41012 10.4514 6.27637 9.50635C6.1245 9.16548 5.66888 7.79298 6.3945 5.93335C6.3945 5.93335 7.52513 5.5711 10.107 7.3171C11.187 7.01673 12.3345 6.86823 13.482 6.86148C14.6295 6.86823 15.777 7.01673 16.857 7.3171C19.422 5.5711 20.5526 5.93335 20.5526 5.93335C21.2782 7.79298 20.8226 9.16548 20.6876 9.50635C21.5483 10.4514 22.0714 11.6551 22.0714 13.1289C22.0714 18.3151 18.9158 19.457 15.912 19.7889C16.3845 20.1939 16.8232 21.0219 16.8232 22.2864C16.8232 24.0931 16.8064 25.5444 16.8064 25.9831C16.8064 26.3375 17.0426 26.7594 17.7345 26.6244C23.1356 24.8536 27 19.7911 27 13.8342C27 6.37885 20.9554 0.334229 13.5 0.334229Z" fill="black"/>
</svg>
