<svg xmlns="http://www.w3.org/2000/svg" fill="none" viewBox="0 0 69 63" width="69px" height="63px">
  <circle cx="34.4127" cy="28.642" r="26.292" stroke="#272528" stroke-width="2.7"/>
  <mask id="a" width="25" height="32" x="0" y="-.243164" fill="#000" maskUnits="userSpaceOnUse">
    <path fill="#fff" d="M0-.243164h25v32H0z"/>
    <path fill-rule="evenodd" d="M11.8948 13.6301c3.2787 0 5.9367-2.6579 5.9367-5.93662 0-3.27872-2.658-5.93664-5.9367-5.93664-3.27869 0-5.93661 2.65792-5.93661 5.93664s2.65792 5.93662 5.93661 5.93662Zm-1.3703 1.2998C5.81653 14.9299 2 18.7465 2 23.4544v4.2098c0 .8827.7156 1.5983 1.59834 1.5983H20.8768c.8827 0 1.5983-.7156 1.5983-1.5983v-4.2098c0-4.7079-3.8165-8.5245-8.5244-8.5245h-3.4262Z" clip-rule="evenodd"/>
  </mask>
  <path fill="#FF4A4A" fill-rule="evenodd" d="M11.8948 13.6301c3.2787 0 5.9367-2.6579 5.9367-5.93662 0-3.27872-2.658-5.93664-5.9367-5.93664-3.27869 0-5.93661 2.65792-5.93661 5.93664s2.65792 5.93662 5.93661 5.93662Zm-1.3703 1.2998C5.81653 14.9299 2 18.7465 2 23.4544v4.2098c0 .8827.7156 1.5983 1.59834 1.5983H20.8768c.8827 0 1.5983-.7156 1.5983-1.5983v-4.2098c0-4.7079-3.8165-8.5245-8.5244-8.5245h-3.4262Z" clip-rule="evenodd"/>
  <path fill="#fff" d="M16.2331 7.69348c0 2.39602-1.9423 4.33832-4.3383 4.33832v3.1967c4.1615 0 7.535-3.3736 7.535-7.53502h-3.1967Zm-4.3383-4.33831c2.396 0 4.3383 1.94233 4.3383 4.33831h3.1967c0-4.16146-3.3735-7.534981-7.535-7.534981V3.35517ZM7.55653 7.69348c0-2.39598 1.94232-4.33831 4.33827-4.33831V.158499c-4.16142 0-7.53495 3.373521-7.53495 7.534981h3.19668Zm4.33827 4.33832c-2.39595 0-4.33827-1.9423-4.33827-4.33832H4.35985c0 4.16142 3.37353 7.53502 7.53495 7.53502v-3.1967ZM3.59834 23.4544c0-3.8252 3.10093-6.9261 6.92616-6.9261v-3.1967c-5.5907 0-10.122837 4.5321-10.122837 10.1228H3.59834Zm0 4.2098v-4.2098H.401663v4.2098H3.59834Zm0 0H.401663c0 1.7655 1.431207 3.1967 3.196677 3.1967v-3.1967Zm17.27846 0H3.59834v3.1967H20.8768v-3.1967Zm0 0v3.1967c1.7655 0 3.1967-1.4312 3.1967-3.1967h-3.1967Zm0-4.2098v4.2098h3.1967v-4.2098h-3.1967Zm-6.9261-6.9261c3.8251 0 6.9261 3.1009 6.9261 6.9261h3.1967c0-5.5907-4.5322-10.1228-10.1228-10.1228v3.1967Zm-3.4262 0h3.4262v-3.1967h-3.4262v3.1967Z" mask="url(#a)"/>
  <mask id="b" width="25" height="32" x="44.5249" y="-.242188" fill="#000" maskUnits="userSpaceOnUse">
    <path fill="#fff" d="M44.5249-.242188h25v32h-25z"/>
    <path fill-rule="evenodd" d="M56.4197 13.6311c3.2787 0 5.9367-2.6579 5.9367-5.93665 0-3.27871-2.658-5.93664-5.9367-5.93664s-5.9366 2.65793-5.9366 5.93664c0 3.27875 2.6579 5.93665 5.9366 5.93665Zm-1.3703 1.2998c-4.708 0-8.5245 3.8166-8.5245 8.5245v4.2098c0 .8827.7156 1.5983 1.5983 1.5983h17.2785c.8827 0 1.5983-.7156 1.5983-1.5983v-4.2098c0-4.7079-3.8165-8.5245-8.5244-8.5245h-3.4262Z" clip-rule="evenodd"/>
  </mask>
  <path fill="#FF4A4A" fill-rule="evenodd" d="M56.4197 13.6311c3.2787 0 5.9367-2.6579 5.9367-5.93665 0-3.27871-2.658-5.93664-5.9367-5.93664s-5.9366 2.65793-5.9366 5.93664c0 3.27875 2.6579 5.93665 5.9366 5.93665Zm-1.3703 1.2998c-4.708 0-8.5245 3.8166-8.5245 8.5245v4.2098c0 .8827.7156 1.5983 1.5983 1.5983h17.2785c.8827 0 1.5983-.7156 1.5983-1.5983v-4.2098c0-4.7079-3.8165-8.5245-8.5244-8.5245h-3.4262Z" clip-rule="evenodd"/>
  <path fill="#fff" d="M60.758 7.69445c0 2.39595-1.9423 4.33835-4.3383 4.33835v3.1966c4.1615 0 7.535-3.3735 7.535-7.53495H60.758Zm-4.3383-4.3383c2.396 0 4.3383 1.94232 4.3383 4.3383h3.1967c0-4.16145-3.3735-7.534974-7.535-7.534974V3.35615Zm-4.3383 4.3383c0-2.39598 1.9424-4.3383 4.3383-4.3383V.159476c-4.1614 0-7.5349 3.373524-7.5349 7.534974h3.1966Zm4.3383 4.33835c-2.3959 0-4.3383-1.9424-4.3383-4.33835h-3.1966c0 4.16145 3.3735 7.53495 7.5349 7.53495v-3.1966Zm-8.2965 11.4226c0-3.8252 3.101-6.9261 6.9262-6.9261v-3.1967c-5.5907 0-10.1228 4.5321-10.1228 10.1228h3.1966Zm0 4.2098v-4.2098h-3.1966v4.2098h3.1966Zm0 0h-3.1966c0 1.7654 1.4312 3.1966 3.1966 3.1966v-3.1966Zm17.2785 0H48.1232v3.1966h17.2785v-3.1966Zm0 0v3.1966c1.7655 0 3.1967-1.4312 3.1967-3.1966h-3.1967Zm0-4.2098v4.2098h3.1967v-4.2098h-3.1967Zm-6.9261-6.9261c3.8251 0 6.9261 3.1009 6.9261 6.9261h3.1967c0-5.5907-4.5322-10.1228-10.1228-10.1228v3.1967Zm-3.4262 0h3.4262v-3.1967h-3.4262v3.1967Z" mask="url(#b)"/>
  <mask id="c" width="25" height="32" x="22.7583" y="31.4199" fill="#000" maskUnits="userSpaceOnUse">
    <path fill="#fff" d="M22.7583 31.4199h25v32h-25z"/>
    <path fill-rule="evenodd" d="M34.6531 45.2932c3.2787 0 5.9367-2.6579 5.9367-5.9366 0-3.2788-2.658-5.9367-5.9367-5.9367s-5.9366 2.6579-5.9366 5.9367c0 3.2787 2.6579 5.9366 5.9366 5.9366Zm-1.3703 1.2998c-4.708 0-8.5245 3.8166-8.5245 8.5245v4.2098c0 .8827.7156 1.5983 1.5983 1.5983h17.2785c.8827 0 1.5983-.7156 1.5983-1.5983v-4.2098c0-4.7079-3.8165-8.5245-8.5244-8.5245h-3.4262Z" clip-rule="evenodd"/>
  </mask>
  <path fill="#FF4A4A" fill-rule="evenodd" d="M34.6531 45.2932c3.2787 0 5.9367-2.6579 5.9367-5.9366 0-3.2788-2.658-5.9367-5.9367-5.9367s-5.9366 2.6579-5.9366 5.9367c0 3.2787 2.6579 5.9366 5.9366 5.9366Zm-1.3703 1.2998c-4.708 0-8.5245 3.8166-8.5245 8.5245v4.2098c0 .8827.7156 1.5983 1.5983 1.5983h17.2785c.8827 0 1.5983-.7156 1.5983-1.5983v-4.2098c0-4.7079-3.8165-8.5245-8.5244-8.5245h-3.4262Z" clip-rule="evenodd"/>
  <path fill="#fff" d="M38.9914 39.3566c0 2.3959-1.9423 4.3383-4.3383 4.3383v3.1966c4.1615 0 7.535-3.3735 7.535-7.5349h-3.1967Zm-4.3383-4.3383c2.396 0 4.3383 1.9423 4.3383 4.3383h3.1967c0-4.1615-3.3735-7.535-7.535-7.535v3.1967Zm-4.3383 4.3383c0-2.396 1.9424-4.3383 4.3383-4.3383v-3.1967c-4.1614 0-7.5349 3.3735-7.5349 7.535h3.1966Zm4.3383 4.3383c-2.3959 0-4.3383-1.9424-4.3383-4.3383h-3.1966c0 4.1614 3.3735 7.5349 7.5349 7.5349v-3.1966Zm-8.2965 11.4226c0-3.8252 3.101-6.9261 6.9262-6.9261v-3.1967c-5.5907 0-10.1228 4.5321-10.1228 10.1228h3.1966Zm0 4.2098v-4.2098H23.16v4.2098h3.1966Zm0 0H23.16c0 1.7655 1.4312 3.1967 3.1966 3.1967v-3.1967Zm17.2785 0H26.3566v3.1967h17.2785v-3.1967Zm0 0v3.1967c1.7655 0 3.1967-1.4312 3.1967-3.1967h-3.1967Zm0-4.2098v4.2098h3.1967v-4.2098h-3.1967Zm-6.9261-6.9261c3.8251 0 6.9261 3.1009 6.9261 6.9261h3.1967c0-5.5907-4.5322-10.1228-10.1228-10.1228v3.1967Zm-3.4262 0h3.4262v-3.1967h-3.4262v3.1967Z" mask="url(#c)"/>
  <path stroke="#fff" stroke-linecap="round" stroke-linejoin="round" stroke-width=".532779" d="M9.91553 9.67285c.58637.74665 2.19877 1.79195 3.95777 0H9.91553ZM54.4395 9.67285c.5863.74665 2.1987 1.79195 3.9577 0h-3.9577ZM32.6726 41.335c.5863.7466 2.1988 1.7919 3.9578 0h-3.9578Z"/>
</svg>
