<svg xmlns="http://www.w3.org/2000/svg" fill="none" viewBox="0 0 50 60" width="50px" height="60px">
  <path stroke="#FF4A4A" stroke-width="5" d="M12 28V9.74247C12 6.01871 15.0187 3 18.7425 3h12.515C34.9813 3 38 6.01871 38 9.74247V28"/>
  <rect width="44" height="32" x="3" y="25" fill="#272528" stroke="#272528" stroke-width="6" rx="7"/>
  <mask id="a" fill="#fff">
    <path fill-rule="evenodd" d="M22.4097 44.6724c.1029-.5907-.186-1.1693-.6369-1.5645-1.0866-.9528-1.7727-2.3512-1.7727-3.91 0-2.8707 2.3272-5.1979 5.1979-5.1979 2.8708 0 5.198 2.3272 5.198 5.1979 0 1.5586-.6859 2.9569-1.7723 3.9096-.4507.3952-.7396.9738-.6367 1.5644l.4369 2.5086c.1528.8777-.5228 1.6811-1.4137 1.6811h-3.6237c-.8909 0-1.5665-.8034-1.4136-1.6811l.4368-2.5081Z" clip-rule="evenodd"/>
  </mask>
  <path fill="#fff" fill-rule="evenodd" d="M22.4097 44.6724c.1029-.5907-.186-1.1693-.6369-1.5645-1.0866-.9528-1.7727-2.3512-1.7727-3.91 0-2.8707 2.3272-5.1979 5.1979-5.1979 2.8708 0 5.198 2.3272 5.198 5.1979 0 1.5586-.6859 2.9569-1.7723 3.9096-.4507.3952-.7396.9738-.6367 1.5644l.4369 2.5086c.1528.8777-.5228 1.6811-1.4137 1.6811h-3.6237c-.8909 0-1.5665-.8034-1.4136-1.6811l.4368-2.5081Z" clip-rule="evenodd"/>
  <path fill="#fff" d="m28.6237 43.1075-.5677-.6473.5677.6473Zm-6.214 1.5649.8482.1477-.8482-.1477Zm-1.5487-5.4745c0 1.3005.5713 2.4664 1.4794 3.2626l-1.1351 1.2947c-1.2652-1.1092-2.0662-2.7402-2.0662-4.5573h1.7219Zm4.337-4.337c-2.3952 0-4.337 1.9418-4.337 4.337h-1.7219c.0001-3.3462 2.7127-6.0588 6.0589-6.0588v1.7218Zm4.337 4.337c0-2.3952-1.9417-4.337-4.337-4.337v-1.7218c3.3463 0 6.0589 2.7126 6.0589 6.0588H29.535Zm-1.479 3.2623c.9079-.7962 1.479-1.962 1.479-3.2623h1.7219c0 1.8168-.8007 3.4477-2.0656 4.5569l-1.1353-1.2946Zm-.4803 4.868-.4369-2.5086 1.6964-.2955.4368 2.5087-1.6963.2954Zm-4.1892.6724h3.6237v1.7219h-3.6237v-1.7219Zm-.1286-3.1805-.4368 2.5081-1.6964-.2954.4368-2.5082 1.6964.2955Zm6.0141 2.2127c.2446 1.4043-.8363 2.6897-2.2618 2.6897v-1.7219c.3564 0 .6266-.3213.5655-.6724l1.6963-.2954Zm-.0807-3.278c-.2968.2603-.393.5579-.3561.7693l-1.6964.2955c-.1689-.9697.3126-1.8292.9172-2.3594l1.1353 1.2946Zm-5.8048 5.9677c-1.4254 0-2.5063-1.2854-2.2618-2.6897l1.6964.2954c-.0612.3511.2091.6724.5654.6724v1.7219Zm-1.0461-7.262c.6047.5302 1.0864 1.3897.9175 2.3596l-1.6964-.2955c.0369-.2114-.0593-.5091-.3562-.7694l1.1351-1.2947Z" mask="url(#a)"/>
</svg>
