<svg version="1.0" xmlns="http://www.w3.org/2000/svg" width="722.667" height="722.667" viewBox="0 0 542 542"><path d="M29.1 47.2C18.1 48.8 8 56.2 3 66.5l-2.5 5L.2 273c-.3 226.7-.9 207.1 7.6 215.5 7.6 7.5 8.2 7.6 58.3 7.3l43.4-.3 4.6-2.7c5.3-3.1 9.3-7.4 11.6-12.7 1.5-3.3 1.6-17.3 1.8-148.1.1-133.4.2-144.7 1.8-147.5 2.7-4.9 4.3-6.5 8.2-8.4 3.6-1.7 9.8-1.8 132.9-1.8 126.4 0 129.2 0 133.1 1.9 4.3 2.1 6.9 4.8 8.7 8.8.8 1.8 1.2 42.9 1.3 146.5l.1 144 2.3 5.3c2.6 5.8 7.4 10.5 13.5 13.3 3.8 1.7 7.7 1.8 47 1.9 48.3 0 49 0 56.5-7 2.3-2.1 5.1-6 6.2-8.6l2.1-4.7V276.5c0-109.5-.3-200.7-.7-202.6-2.3-10.6-11.1-21.1-21.2-25l-5.8-2.2-239.6-.1c-131.7-.1-241.9.2-244.8.6z"/><path d="M223.5 257.6c-6 2.1-11 6.7-14 12.8l-2.6 5.4-.1 44.6c0 43.9 0 44.7 2.2 49.1 2.7 5.5 6.8 9.8 12.4 12.8 4.1 2.2 4.6 2.2 49.1 2.2h45l4.4-2.3c5.7-3.1 9.3-6.9 12.2-12.8l2.3-4.9v-44l.1-44.1-2.8-5.7c-3.2-6.5-8.2-11-14.6-13.2-6.4-2.2-87.5-2.1-93.6.1z"/></svg>