<svg id="Layer_1" data-name="Layer 1" xmlns="http://www.w3.org/2000/svg" viewBox="0 0 432 159.85"><defs><style>.cls-1{fill:#231f20;}</style></defs><title>UMA_Mark_Master_v1</title><path class="cls-1" d="M276.66,108H258.45a6.2,6.2,0,0,1-6.2-6.19V53.66l-32,20a8.24,8.24,0,0,1-8.78,0l-32-20v48.15a6.2,6.2,0,0,1-6.2,6.19H155.13a6.19,6.19,0,0,1-6.19-6.19V9A8.26,8.26,0,0,1,161.86,2.2L212.4,36.83a6.21,6.21,0,0,0,7,0L269.93,2.2A8.26,8.26,0,0,1,282.85,9v92.8A6.19,6.19,0,0,1,276.66,108Z"/><path class="cls-1" d="M121.63,107.81H8.26A8.26,8.26,0,0,1,0,99.55V6.19A6.19,6.19,0,0,1,6.19,0H24.41A6.19,6.19,0,0,1,30.6,6.19v71H99.29v-71A6.19,6.19,0,0,1,105.48,0h18.21a6.2,6.2,0,0,1,6.2,6.19V99.55A8.26,8.26,0,0,1,121.63,107.81Z"/><path class="cls-1" d="M310.16,0H423.53a8.26,8.26,0,0,1,8.26,8.26v93.35a6.19,6.19,0,0,1-6.19,6.2H407.38a6.19,6.19,0,0,1-6.19-6.2V34.73a4.13,4.13,0,0,0-4.13-4.13H336.64a4.12,4.12,0,0,0-4.13,4.13v66.88a6.2,6.2,0,0,1-6.2,6.2H308.1a6.19,6.19,0,0,1-6.19-6.2V8.26A8.25,8.25,0,0,1,310.16,0Z"/><rect class="cls-1" x="351.56" y="50.23" width="30.58" height="30.89" rx="6.19"/><path d="M1.13,146.32V130.39h6.5v16c0,4.24,1.65,6.18,5.36,6.18s5.21-1.82,5.21-6V130.39h5.61v16.22c0,7.5-4,11.13-11.06,11.13C4.88,157.74,1.13,153.87,1.13,146.32Z"/><path d="M33.45,141.16a5.79,5.79,0,0,1,5.65-3.51c4.2,0,6.66,2.82,6.66,8.07v11.46H39.62V146.12c0-2.34-.84-3.55-2.9-3.55s-3.23,1.62-3.23,4.6v10H27.36V138.13h6.09Z"/><path d="M55.48,135.67H49.19v-5.24h6.29Zm-.08,21.51H49.27V138.13H55.4Z"/><path d="M68,150.52l3.79-12.39h5.57l-7,19.13H64.76L57.5,138.13h6.37Z"/><path d="M77.27,147.78c0-6,4-10.05,9.93-10.05s9.64,3.79,9.64,10.09v1.49H83.16a4.51,4.51,0,0,0,8.64,1.13l5,1.49c-1.29,3.47-4.12,5.65-9.44,5.65C81.06,157.58,77.27,153.79,77.27,147.78Zm5.89-2h7.67c-.16-2.54-1.37-3.79-3.71-3.79A3.86,3.86,0,0,0,83.16,145.76Z"/><path d="M105.84,141.44c.6-2.1,2.1-3.43,5.36-3.43h.45v5.53h-2.26c-2.83,0-3.55,1.25-3.55,4.12v9.52H99.66V138.13h6.18Z"/><path d="M113.06,154.07l3.75-2.9a6.85,6.85,0,0,0,5.13,2.42c1.57,0,2.54-.61,2.54-1.7s-1.9-1.45-4.44-2c-3.19-.69-6.7-2-6.7-5.94,0-3.63,3.39-6.29,7.91-6.29a11.16,11.16,0,0,1,8.88,3.75c0,.08-3.63,2.75-3.63,2.75a6.58,6.58,0,0,0-4.93-2.34c-1.53,0-2.46.6-2.46,1.61,0,1.17,1.09,1.37,4,2,3.27.64,7.18,1.89,7.18,5.93,0,3.75-3.43,6.45-8.07,6.45A12,12,0,0,1,113.06,154.07Z"/><path d="M132.35,152.18c0-4.28,3.39-5.25,7.42-6.06,3.31-.68,5.21-.8,5.33-1.85v-.12c0-1.17-.93-2-3.07-2s-3.27,1.09-3.39,2.62v.32h-5.85c.08-4.44,3.55-7.34,9.32-7.34s8.92,2.34,8.92,7.83v11.62h-6v-2.62a6.78,6.78,0,0,1-6.18,3.14C134.89,157.7,132.35,155.52,132.35,152.18Zm12.75-2.35v-1.89a18.89,18.89,0,0,1-3.59,1.09c-1.7.48-3,1.05-3,2.66,0,1.17.85,2,2.38,2A3.92,3.92,0,0,0,145.1,149.83Z"/><path d="M160.71,157.18h-6.13V130.1h6.13Z"/><path d="M188.31,147.49l5.12-17.1h10v26.79h-6.37V135.55l-6.78,21.63H185.2l-6.53-21.51v21.51h-5.53V130.39h10.25Z"/><path d="M206.31,152.18c0-4.28,3.39-5.25,7.42-6.06,3.31-.68,5.21-.8,5.33-1.85v-.12c0-1.17-.93-2-3.07-2s-3.27,1.09-3.39,2.62v.32h-5.85c.08-4.44,3.55-7.34,9.32-7.34s8.92,2.34,8.92,7.83v11.62h-6v-2.62a6.78,6.78,0,0,1-6.18,3.14C208.85,157.7,206.31,155.52,206.31,152.18Zm12.75-2.35v-1.89a18.89,18.89,0,0,1-3.59,1.09c-1.7.48-3,1.05-3,2.66,0,1.17.85,2,2.38,2A3.92,3.92,0,0,0,219.06,149.83Z"/><path d="M234.63,141.44c.61-2.1,2.1-3.43,5.37-3.43h.44v5.53h-2.26c-2.82,0-3.55,1.25-3.55,4.12v9.52h-6.17V138.13h6.17Z"/><path d="M249.08,146.08l6.17-8h6.66l-6.42,7.06,6.74,12h-6.5l-4.31-7.83-2.34,2.83v5h-6V130.1h6Z"/><path d="M262.07,147.78c0-6,3.95-10.05,9.93-10.05s9.64,3.79,9.64,10.09v1.49H268a4.51,4.51,0,0,0,8.64,1.13l5,1.49c-1.29,3.47-4.12,5.65-9.44,5.65C265.86,157.58,262.07,153.79,262.07,147.78Zm5.89-2h7.67c-.16-2.54-1.37-3.79-3.72-3.79C269.78,142,268.24,143.34,268,145.76Z"/><path d="M290.27,157.18c-3.95-.28-4.72-2.1-4.8-5.49v-9.24h-2.54v-4.32h2.54v-3.71l6-2.94v6.65h3.43v4.32h-3.47v9c0,.85.41,1.21,1.25,1.25h2.1v4.48Z"/><path d="M314.36,130.39h7.22l9.49,26.79h-6.82l-2.3-6.7h-9.28l-2.34,6.7h-5.77Zm-.2,15.57h6.42l-3.11-9.24Z"/><path d="M331.51,147.62c0-5.9,4-9.89,10.09-9.89,5.12,0,7.87,2.42,9.12,6.29l-5.65,1.5c-.45-1.82-1.29-3.23-3.43-3.23-2.46,0-3.92,2-3.92,5.25v.24c0,3.26,1.34,5.24,3.8,5.24,2.3,0,3.31-1.29,3.71-3.43l5.65,1.33c-1.17,4.08-4,6.66-9.36,6.66C335.22,157.58,331.51,153.71,331.51,147.62Z"/><path d="M352.57,147.62c0-5.9,4-9.89,10.09-9.89,5.12,0,7.87,2.42,9.12,6.29l-5.65,1.5c-.44-1.82-1.29-3.23-3.43-3.23-2.46,0-3.91,2-3.91,5.25v.24c0,3.26,1.33,5.24,3.79,5.24,2.3,0,3.31-1.29,3.71-3.43l5.65,1.33c-1.17,4.08-4,6.66-9.36,6.66C356.28,157.58,352.57,153.71,352.57,147.62Z"/><path d="M373.63,147.78c0-6,4-10.05,9.93-10.05s9.64,3.79,9.64,10.09v1.49H379.53a4.51,4.51,0,0,0,8.63,1.13l5,1.49c-1.29,3.47-4.11,5.65-9.44,5.65C377.43,157.58,373.63,153.79,373.63,147.78Zm5.9-2h7.66c-.16-2.54-1.37-3.79-3.71-3.79C381.34,142,379.81,143.34,379.53,145.76Z"/><path d="M394.9,154.07l3.75-2.9a6.85,6.85,0,0,0,5.13,2.42c1.57,0,2.54-.61,2.54-1.7s-1.9-1.45-4.44-2c-3.19-.69-6.7-2-6.7-5.94,0-3.63,3.39-6.29,7.91-6.29A11.16,11.16,0,0,1,412,141.4c0,.08-3.63,2.75-3.63,2.75a6.59,6.59,0,0,0-4.93-2.34c-1.53,0-2.46.6-2.46,1.61,0,1.17,1.09,1.37,4,2,3.27.64,7.18,1.89,7.18,5.93,0,3.75-3.43,6.45-8.07,6.45A12,12,0,0,1,394.9,154.07Z"/><path d="M413.26,154.07l3.75-2.9a6.85,6.85,0,0,0,5.13,2.42c1.57,0,2.54-.61,2.54-1.7s-1.9-1.45-4.44-2c-3.19-.69-6.7-2-6.7-5.94,0-3.63,3.39-6.29,7.91-6.29a11.18,11.18,0,0,1,8.88,3.75c0,.08-3.63,2.75-3.63,2.75a6.59,6.59,0,0,0-4.93-2.34c-1.53,0-2.46.6-2.46,1.61,0,1.17,1.09,1.37,4,2,3.26.64,7.18,1.89,7.18,5.93,0,3.75-3.43,6.45-8.07,6.45A12,12,0,0,1,413.26,154.07Z"/></svg>