<svg width="500" height="500" viewBox="0 0 500 500" fill="none" xmlns="http://www.w3.org/2000/svg">
<circle cx="250" cy="250" r="250" fill="white"/>
<g clip-path="url(#clip0_2961_1052)">
<path fill-rule="evenodd" clip-rule="evenodd" d="M306.591 299.978H289.54C286.337 299.978 283.741 297.388 283.741 294.197V249.263L253.81 267.977C251.299 269.548 248.106 269.548 245.595 267.977L215.665 249.261V294.197C215.665 297.388 213.067 299.978 209.866 299.978H192.815C189.61 299.978 187.016 297.388 187.016 294.197V207.592C187.016 201.391 193.986 197.728 199.116 201.233L246.426 233.548C248.4 234.899 251.006 234.899 252.981 233.548L300.287 201.233C305.42 197.726 312.39 201.389 312.39 207.59V294.197C312.39 297.388 309.794 299.978 306.591 299.978Z" fill="#FF4A4A"/>
<path fill-rule="evenodd" clip-rule="evenodd" d="M161.337 299.208L55.7068 299.206C51.4572 299.206 48.0117 295.769 48.0117 291.529V204.757C48.0117 201.577 50.5953 199 53.783 199H70.7525C73.9382 199 76.5238 201.577 76.5238 204.757V270.762L140.52 270.764V204.757C140.52 201.577 143.101 199 146.291 199H163.26C166.446 199 169.032 201.577 169.032 204.757V291.531C169.032 295.77 165.586 299.208 161.337 299.208Z" fill="#FF4A4A"/>
<path fill-rule="evenodd" clip-rule="evenodd" d="M337.832 199L443.462 199.002C447.711 199.002 451.157 202.439 451.157 206.678V293.45C451.157 296.63 448.571 299.208 445.385 299.208H428.416C425.228 299.208 422.645 296.63 422.645 293.45V231.284C422.645 229.165 420.921 227.445 418.797 227.445L362.496 227.443C360.372 227.443 358.649 229.161 358.649 231.282V293.45C358.649 296.63 356.065 299.208 352.877 299.208H335.908C332.72 299.208 330.137 296.63 330.137 293.45V206.677C330.137 202.437 333.582 199 337.832 199Z" fill="#FF4A4A"/>
<path fill-rule="evenodd" clip-rule="evenodd" d="M376.383 251.74V268.823C376.383 271.982 378.969 274.542 382.159 274.542H399.127C402.318 274.542 404.903 271.982 404.903 268.823V251.74C404.903 248.582 402.318 246.021 399.127 246.021H382.159C378.969 246.021 376.383 248.582 376.383 251.74Z" fill="#FF4A4A"/>
</g>
<defs>
<clipPath id="clip0_2961_1052">
<rect width="403.143" height="102.993" fill="white" transform="translate(48 199)"/>
</clipPath>
</defs>
</svg>
