<svg width="100" height="100" viewBox="0 0 100 100" fill="none" xmlns="http://www.w3.org/2000/svg">
<mask id="mask0" mask-type="alpha" maskUnits="userSpaceOnUse" x="0" y="0" width="100" height="100">
<rect width="100" height="100" fill="#C4C4C4"/>
</mask>
<g mask="url(#mask0)">
<path d="M32.75 34.7008C34.262 26.6285 38.3257 17.3976 44.76 7.64438C45.9285 5.87322 48.4994 5.85423 49.6107 7.65863C54.8668 16.1963 58.6968 25.2088 61.0721 34.7008H32.75Z" fill="#B20000"/>
<path d="M39.8443 65.9358L32.6135 78.3434C32.1127 79.1981 32.7232 80.2855 33.701 80.2855H60.411C61.3697 80.2855 61.9802 79.2409 61.5223 78.3861L54.8257 65.9405H39.8443V65.9358Z" fill="#B20000"/>
<path d="M31.5645 45.209C23.4513 50.6364 19.6976 58.6565 20.0124 69.0888C20.0362 69.953 20.7565 70.6415 21.6245 70.6415H47.7049L31.5645 45.209Z" fill="#B20000"/>
<path d="M62.4657 45.209C70.5788 50.6364 74.3325 58.6565 74.0177 69.0888C73.9939 69.953 73.2737 70.6415 72.4056 70.6415H46.3252L62.4657 45.209Z" fill="#B20000"/>
<path d="M32.8996 34.0076C37.9935 10.4697 54.8924 10.1326 60.9116 34.0076C63.9261 46.5957 62.7003 60.9976 57.301 70.6321H37.1111C31.9552 58.8608 30.0282 46.7096 32.8996 34.0076Z" fill="#FF4A4A"/>
<path d="M47.1355 45.7123C52.2563 45.7123 56.4076 41.5795 56.4076 36.4814C56.4076 31.3833 52.2563 27.2505 47.1355 27.2505C42.0146 27.2505 37.8633 31.3833 37.8633 36.4814C37.8633 41.5795 42.0146 45.7123 47.1355 45.7123Z" fill="#FFA6A6"/>
<path d="M47.1341 43.1863C50.8536 43.1863 53.8689 40.1844 53.8689 36.4815C53.8689 32.7786 50.8536 29.7767 47.1341 29.7767C43.4147 29.7767 40.3994 32.7786 40.3994 36.4815C40.3994 40.1844 43.4147 43.1863 47.1341 43.1863Z" fill="white"/>
<path d="M34.7354 64.4877C37.268 66.52 56.9619 66.9094 59.9906 64.4877C59.1845 66.7906 58.3117 68.8989 57.3053 70.6369H37.1106C36.2569 68.7138 35.4699 66.6529 34.7354 64.4877Z" fill="#FFA6A6"/>
<path d="M47.0555 54.5064C48.2409 54.5064 49.2019 53.5497 49.2019 52.3696C49.2019 51.1895 48.2409 50.2328 47.0555 50.2328C45.8701 50.2328 44.9092 51.1895 44.9092 52.3696C44.9092 53.5497 45.8701 54.5064 47.0555 54.5064Z" fill="#FFA6A6"/>
<path d="M47.0555 61.6338C48.2409 61.6338 49.2019 60.6771 49.2019 59.497C49.2019 58.3169 48.2409 57.3602 47.0555 57.3602C45.8701 57.3602 44.9092 58.3169 44.9092 59.497C44.9092 60.6771 45.8701 61.6338 47.0555 61.6338Z" fill="#FFA6A6"/>
<path d="M48.2562 82.8118H46.458V97.6078H48.2562V82.8118Z" fill="#B20000"/>
<path d="M54.138 82.8118H52.3398V91.0503H54.138V82.8118Z" fill="#B20000"/>
<path d="M42.3812 82.8118H40.583V91.0503H42.3812V82.8118Z" fill="#B20000"/>
<path d="M96.9515 99.0038C97.5 93.0066 93.1214 87.6504 87.0831 86.9951C83.191 86.5725 79.5566 88.2059 77.2528 91.0122C75.8601 90.3237 74.2861 89.9344 72.6263 89.9344C68.7772 89.9344 65.4194 92.0142 63.6164 95.1006C62.7531 94.7635 61.8087 94.5783 60.8262 94.5783C57.745 94.5783 55.0883 96.3922 53.8721 99.0038H96.9515Z" fill="#FFA6A6"/>
<path d="M0.0463772 99.0038C-0.502131 93.0066 3.8764 87.6504 9.91476 86.9951C13.8068 86.5725 17.4413 88.2059 19.745 91.0122C21.1377 90.3237 22.7117 89.9344 24.3715 89.9344C28.2206 89.9344 31.5785 92.0142 33.3814 95.1006C34.2447 94.7635 35.1891 94.5783 36.1716 94.5783C39.2528 94.5783 41.9095 96.3922 43.1258 99.0038H0.0463772Z" fill="#FFA6A6"/>
</g>
</svg>
