<svg width="110" height="112" viewBox="0 0 110 112" fill="none" xmlns="http://www.w3.org/2000/svg">
<circle cx="52.4182" cy="58.7073" r="47.3413" stroke="#FF4A4A" stroke-width="10.1538"/>
<circle cx="52.4168" cy="58.7078" r="26.374" stroke="#FF4A4A" stroke-width="10.1538"/>
<circle cx="52.4182" cy="58.7083" r="10.4836" fill="#FF4A4A"/>
<path d="M51.5613 56.5171L53.2752 56.1827C53.8278 56.0749 54.3978 56.2489 54.7959 56.647L90.6268 92.4779C91.2877 93.1388 91.2877 94.2103 90.6268 94.8712L88.5785 96.9196C87.9176 97.5805 86.8461 97.5805 86.1852 96.9196L50.3543 61.0887C49.9562 60.6906 49.7821 60.1205 49.8899 59.5679L50.2243 57.854C50.3563 57.1778 50.885 56.649 51.5613 56.5171Z" fill="#272528" fill-opacity="0.15"/>
<path d="M91.4401 9.02649L92.1588 16.4529C92.2377 17.2679 92.8888 17.9096 93.705 17.9765L100.988 18.5735C101.484 18.6141 101.972 18.4349 102.323 18.0835L107.985 12.4217C108.893 11.5134 108.498 9.96401 107.266 9.60155L102.952 8.33287C102.407 8.17263 101.979 7.7498 101.812 7.20701L100.421 2.68647C100.046 1.46758 98.509 1.08575 97.6072 1.98751L91.9279 7.66684C91.5703 8.02441 91.3914 8.52316 91.4401 9.02649Z" fill="#272528"/>
<path d="M49.2846 59.3887L49.1367 57.4883C49.0984 56.9952 49.2776 56.5101 49.6273 56.1604L95.7279 10.0597C96.3888 9.39882 97.4603 9.39882 98.1212 10.0597L100.17 12.108C100.83 12.7689 100.83 13.8404 100.17 14.5013L54.0689 60.602C53.7192 60.9517 53.234 61.1309 52.741 61.0925L50.8405 60.9446C50.0095 60.88 49.3493 60.2198 49.2846 59.3887Z" fill="#272528"/>
</svg>
