<svg width="105" height="112" viewBox="0 0 105 112" fill="none" xmlns="http://www.w3.org/2000/svg">
<path d="M67.538 52.8136C82.0747 39.5301 96.5696 47.2788 102 52.8136C100.329 36.2091 88.0272 3 52.1867 3C7.38608 3 3 48.1139 3 52.8136C19.9177 38.0893 32.4494 49.6804 36.8354 52.8136C50.6203 39.969 63.7785 49.3671 67.538 52.8136Z" fill="#FF4A4A" stroke="#272528" stroke-width="4.56923" stroke-linecap="round" stroke-linejoin="round"/>
<path d="M37.3805 51.5615C48.659 41.7868 62.5482 47.4887 68.083 51.5615C72.1555 21.1724 55.865 6.44736 52.7318 3.31445C32.3678 23.9917 37.3805 47.1752 37.3805 51.5615Z" fill="white" stroke="#272528" stroke-width="4.56923" stroke-linecap="round" stroke-linejoin="round"/>
<path d="M3 53.4404L51.2468 73.8044" stroke="#272528" stroke-width="4.56923" stroke-linecap="round" stroke-linejoin="round"/>
<path d="M102 53.4404L53.7532 73.8044" stroke="#272528" stroke-width="4.56923" stroke-linecap="round" stroke-linejoin="round"/>
<path d="M36.5225 53.126L52.187 73.8032" stroke="#272528" stroke-width="4.56923" stroke-linecap="round" stroke-linejoin="round"/>
<path d="M66.9102 53.126L51.2456 73.8032" stroke="#272528" stroke-width="4.56923" stroke-linecap="round" stroke-linejoin="round"/>
<rect x="36.5288" y="77.7788" width="31.9423" height="31.9423" rx="8.75769" fill="#FF4A4A" stroke="#272528" stroke-width="3.80769"/>
<path d="M45.9492 94.3843L51.4323 100.477L59.6569 88.292" stroke="white" stroke-width="4.56923" stroke-linecap="round" stroke-linejoin="round"/>
</svg>
