<svg width="65" height="59" viewBox="0 0 65 59" fill="none" xmlns="http://www.w3.org/2000/svg">
<path d="M13.2057 3.37695L62.9222 37.3232L50.6267 55.4992L0.910156 21.2856L13.2057 3.37695Z" fill="url(#paint0_linear)"/>
<path d="M62.927 37.3251C58.6503 43.4728 44.2165 41.0672 30.5845 31.4446C16.6852 22.0894 9.20102 9.52657 13.2104 3.37882C17.4871 -2.76893 31.921 -0.363288 45.5529 9.25928C59.4522 18.3473 66.9364 31.1773 62.927 37.3251Z" fill="url(#paint1_linear)"/>
<path d="M50.6269 55.233C46.3502 61.3808 31.9163 58.9751 18.2844 49.3526C4.6524 39.73 -3.09911 27.4345 1.17759 21.0194C5.45428 14.8717 19.8881 17.2773 33.5201 26.8999C47.1521 36.5225 54.6363 49.0853 50.6269 55.233Z" fill="url(#paint2_linear)"/>
<path d="M62.9191 37.3282L50.6236 55.5042C46.3469 61.6519 31.9131 58.979 18.2811 49.6237C15.6082 47.7526 13.2025 45.8816 10.7969 43.7432C12.6679 43.476 15.0736 42.4068 17.4792 39.7338C21.7559 35.1899 23.8943 34.1207 25.7653 34.388C27.6364 34.388 29.7747 36.259 33.2495 40.803C36.7243 45.347 41.5356 46.6835 44.4759 44.2778C44.7431 44.0105 45.0104 44.0105 45.2777 43.7432C47.6834 41.8722 48.4853 41.0703 53.0292 32.5169C54.0984 30.3786 57.8405 26.9038 62.9191 28.5075C64.2556 31.9823 64.2556 34.9226 62.9191 37.3282Z" fill="#0E0F23"/>
<path fill-rule="evenodd" clip-rule="evenodd" d="M61.0564 36.256C57.3143 41.6019 44.2169 38.9289 31.6541 30.1083C18.824 21.2876 11.3398 10.0612 15.0819 4.71537C18.824 -0.630498 31.9214 2.04244 44.4842 10.8631C57.047 19.6838 64.5312 30.9101 61.0564 36.256ZM49.2955 28.2372C47.4244 30.9101 41.0094 29.5737 34.5943 25.297C28.4466 21.0203 24.7045 15.4071 26.5755 12.7342C28.4466 10.0612 34.8616 11.3977 41.2767 15.6744C47.4244 19.9511 51.1665 25.5643 49.2955 28.2372Z" fill="white"/>
<path d="M12.1356 9.52449C12.1356 9.2572 11.8683 8.98991 11.601 9.2572C11.3337 9.52449 11.0664 9.52449 11.0664 9.79179C11.3337 10.5937 11.601 11.1283 11.601 11.6628C11.601 11.9301 11.8683 12.1974 12.1356 11.9301C12.4029 11.9301 12.6702 11.6628 12.4029 11.3955C12.4029 10.861 12.4029 10.3264 12.1356 9.52449Z" fill="white"/>
<path d="M13.4777 13.8057C13.4777 13.5385 13.2104 13.2712 12.9431 13.5385C12.6758 13.8057 12.6758 13.8057 12.6758 14.073C15.616 20.7554 21.7638 27.9723 29.7826 33.3182C30.0499 33.5855 30.3172 33.3182 30.5844 33.3182C30.8517 33.0509 30.5844 32.7836 30.5844 32.5163C22.2983 27.1704 16.4179 20.2208 13.4777 13.8057Z" fill="white"/>
<path d="M45.8197 40C45.5525 40 45.2852 40 45.2852 40.2673C45.2852 40.5346 45.2852 40.8019 45.5525 40.8019C46.3543 41.0692 47.4235 41.3365 48.2254 41.6038C48.4927 41.6038 48.76 41.6038 48.76 41.3365C48.76 41.0692 48.76 40.8019 48.4927 40.8019C47.6908 40.5346 46.6216 40.2673 45.8197 40Z" fill="white"/>
<path d="M50.6322 41.0645C50.365 41.0645 50.0977 41.3317 50.0977 41.599C50.0977 41.8663 50.365 42.1336 50.6322 42.1336C52.7706 42.4009 55.1762 42.6682 57.0473 42.4009C57.3146 42.4009 57.5819 42.1336 57.5819 41.8663C57.5819 41.599 57.3146 41.3317 57.0473 41.3317C54.9089 41.599 52.7706 41.3317 50.6322 41.0645Z" fill="white"/>
<defs>
<linearGradient id="paint0_linear" x1="22.9464" y1="-1.44957" x2="32.8058" y2="32.4064" gradientUnits="userSpaceOnUse">
<stop stop-color="#03B8FF"/>
<stop offset="1" stop-color="#FA52A0"/>
</linearGradient>
<linearGradient id="paint1_linear" x1="31.0704" y1="-3.81244" x2="40.9301" y2="30.0438" gradientUnits="userSpaceOnUse">
<stop stop-color="#03B8FF"/>
<stop offset="1" stop-color="#FA52A0"/>
</linearGradient>
<linearGradient id="paint2_linear" x1="14.8523" y1="0.908548" x2="24.712" y2="34.7647" gradientUnits="userSpaceOnUse">
<stop stop-color="#03B8FF"/>
<stop offset="1" stop-color="#FA52A0"/>
</linearGradient>
</defs>
</svg>
