<svg width="65" height="65" viewBox="0 0 65 65" fill="none" xmlns="http://www.w3.org/2000/svg">
<g clip-path="url(#clip0)">
<line x1="32.4878" y1="9.355" x2="32.4878" y2="52.666" stroke="#2D2E33" stroke-width="2.71" stroke-linecap="round"/>
<line x1="1.355" y1="14.7671" x2="63.6158" y2="14.7671" stroke="#2D2E33" stroke-width="2.71" stroke-linecap="round"/>
<path d="M43.3142 60.1116C43.3142 58.1371 42.1377 56.2436 40.0435 54.8475C37.9493 53.4513 35.109 52.667 32.1473 52.667C29.1857 52.667 26.3454 53.4513 24.2512 54.8475C22.157 56.2436 20.9805 58.1371 20.9805 60.1116L32.1473 60.1116H43.3142Z" fill="#2D2E33"/>
<path d="M5.07617 38.7966L12.8591 16.4629L20.6421 38.7966" stroke="#2D2E33" stroke-width="2.71" stroke-linejoin="bevel"/>
<path d="M4.77021 47.4087C2.88258 45.3223 1.69784 42.5707 1.41823 39.6231L12.858 39.6231L24.2977 39.6231C24.0181 42.5707 22.8334 45.3223 20.9458 47.4087C18.7755 49.8074 15.8627 51.1255 12.858 51.1255C9.85323 51.1255 6.94048 49.8074 4.77021 47.4087Z" fill="#FF4A4A" stroke="#2D2E33" stroke-width="2.71"/>
<path d="M44.3594 38.7947L52.1423 16.4609L59.9253 38.7947" stroke="#2D2E33" stroke-width="2.71" stroke-linejoin="bevel"/>
<path d="M44.0534 47.4067C42.1658 45.3204 40.981 42.5687 40.7014 39.6211L52.1412 39.6211L63.5809 39.6211C63.3013 42.5687 62.1166 45.3204 60.229 47.4067C58.0587 49.8054 55.1459 51.1235 52.1412 51.1235C49.1364 51.1235 46.2237 49.8054 44.0534 47.4067Z" fill="#FF4A4A" stroke="#2D2E33" stroke-width="2.71"/>
</g>
<defs>
<clipPath id="clip0">
<rect width="65" height="65" fill="white"/>
</clipPath>
</defs>
</svg>
