<svg width="65" height="61" viewBox="0 0 65 61" fill="none" xmlns="http://www.w3.org/2000/svg">
<g clip-path="url(#clip0)">
<circle cx="33" cy="29" r="26" fill="#F2F2F2"/>
<g clip-path="url(#clip1)">
<path d="M33.4931 0.303742C33.2299 0.172127 32.8351 0.172127 32.5718 0.303743C29.084 2.34379 27.1098 6.02904 27.4388 10.1749L27.5704 11.7543L25.3988 13.1363C24.2142 13.6628 23.6878 14.9789 24.0826 16.1635L25.2013 20.1777C25.2671 20.5068 25.4646 20.7042 25.7936 20.77C26.0568 20.9016 26.3859 20.8358 26.6491 20.7042L29.1498 19.1248C29.4789 19.8487 29.9395 20.441 30.3344 21.0991C30.5318 21.2965 30.795 21.4281 31.0582 21.4281L35.1383 21.4281C35.4016 21.4281 35.599 21.3623 35.7964 21.1649L35.8622 21.0991C36.3887 20.441 36.8494 19.8487 37.1784 19.1248L39.5475 20.7042C39.8107 20.8358 40.1397 20.9016 40.403 20.77C40.5346 20.77 40.6662 20.6384 40.732 20.5726C40.8636 20.441 40.9294 20.3752 40.9953 20.1777L42.114 16.1635C42.443 15.0447 41.9166 13.7286 40.8636 13.0705L38.5604 11.6885L38.6262 10.1749C38.9552 6.16065 36.9152 2.27798 33.4931 0.303742ZM27.8337 14.7815C27.9653 15.7028 28.0969 16.6241 28.3601 17.4138L26.6491 18.4667L25.8594 15.7028C25.7278 15.308 25.9252 14.9789 26.3201 14.7157L27.702 13.8602L27.8337 14.7815ZM40.2056 15.7028L39.4159 18.4667L37.8365 17.4138C38.1655 16.5583 38.2971 15.637 38.3629 14.7815L38.3629 13.8602L39.7449 14.7157C40.2056 14.9131 40.3372 15.4396 40.2056 15.7028ZM34.0196 8.59555C33.4931 9.12201 32.5718 9.12201 32.0454 8.59555C31.5189 8.06908 31.5189 7.14777 32.0454 6.62131C32.5718 6.09484 33.4931 6.09484 34.0196 6.62131C34.5461 7.14777 34.6119 8.00327 34.0196 8.59555Z" fill="#2D2E33"/>
</g>
<path d="M33.9139 24.0586H32.2296C31.6776 24.0586 31.2469 24.5364 31.304 25.0854L32.2664 34.349C32.3835 35.4762 34.0319 35.4549 34.1199 34.3251L34.8418 25.0616C34.8839 24.5207 34.4564 24.0586 33.9139 24.0586Z" fill="#FF4A4A"/>
<path d="M18.7048 60.2133L7.86133 53.9407V41.5898L18.6561 47.2304C18.6561 47.2304 18.6561 47.279 18.7048 47.279V60.2133V60.2133Z" fill="#FF4A4A"/>
<path d="M19.1401 46.3063L8.24805 40.6172L19.1887 34.2959L29.9835 40.5199L19.1401 46.3063Z" fill="#FF4A4A"/>
<path d="M30.5194 53.9408L19.7246 60.1649V47.1333L30.5194 41.3955V53.9408Z" fill="#FF4A4A"/>
<path d="M46.7634 60.2133L35.9199 53.9407V41.5898L46.7147 47.2304C46.7147 47.2304 46.7147 47.279 46.7634 47.279V60.2133V60.2133Z" fill="#FF4A4A"/>
<path d="M47.1987 46.3063L36.3066 40.6172L47.2473 34.2959L58.0421 40.5199L47.1987 46.3063Z" fill="#FF4A4A"/>
<path d="M58.578 53.9408L47.7832 60.1649V47.1333L58.578 41.3955V53.9408Z" fill="#FF4A4A"/>
</g>
<defs>
<clipPath id="clip0">
<rect width="65" height="60.3571" fill="white"/>
</clipPath>
<clipPath id="clip1">
<rect width="22.336" height="22.336" fill="white" transform="translate(17.2383 13.7939) rotate(-45)"/>
</clipPath>
</defs>
</svg>
