<svg width="65" height="65" viewBox="0 0 65 65" fill="none" xmlns="http://www.w3.org/2000/svg">
<circle cx="32.5" cy="32.5" r="32.5" fill="#6CF9D8"/>
<path fill-rule="evenodd" clip-rule="evenodd" d="M47.3298 13.9277L51.0706 17.6686L38.569 30.1701C37.9099 28.4541 36.5441 27.0885 34.8279 26.4296L47.3298 13.9277ZM30.1704 26.4296L17.6686 13.9277L13.9277 17.6686L26.4291 30.1699C27.0883 28.4539 28.4542 27.0883 30.1704 26.4296ZM26.4287 34.8288L13.9277 47.3298L17.6686 51.0706L30.1692 38.57C28.4531 37.9109 27.0875 36.545 26.4287 34.8288ZM34.8291 38.5699L47.3298 51.0706L51.0706 47.3298L38.5695 34.8286C37.9107 36.5449 36.5451 37.9108 34.8291 38.5699Z" fill="#2D2E33"/>
</svg>
