<svg width="309" height="54" viewBox="0 0 309 54" fill="none" xmlns="http://www.w3.org/2000/svg">
<g filter="url(#filter0_d)">
<path d="M97.15 42.49H86.935L103.9 10H78.97L76.54 20.53L82.795 13.735H93.28L76.54 46H101.74L104.08 32.77L97.15 42.49ZM97.195 14.905L93.64 23.725L91.885 24.715L91.795 22.735L97.195 14.905ZM90.895 26.56L91.12 28.63L89.32 29.485L89.05 27.505L90.895 26.56ZM86.53 32.32L88.33 31.33L88.465 33.31L82.975 41.185L86.53 32.32ZM120.379 22.105L124.564 29.08V18.865H105.169L108.364 21.655V43.21L105.169 46H124.564V33.76L120.694 42.76H115.069V33.76H117.724L120.469 37.225V27.1L117.724 30.61H115.069V22.105H120.379ZM141.641 43.21H137.591V21.655L140.831 18.865H127.691L130.886 21.655V43.21L127.691 46H146.411V31.06L141.641 43.21ZM159.184 18.865H149.509L152.704 21.655V43.21L149.509 46H159.679C166.834 46 172.504 40.6 172.504 32.455C172.504 24.4 166.924 18.865 159.184 18.865ZM159.409 43.12V21.7C161.794 21.7 166.114 24.67 166.114 32.455C166.114 40.195 161.299 43.12 159.409 43.12ZM184.198 46H196.303L193.243 43.21L187.168 18.865H177.448L180.643 21.655L174.298 43.21L170.923 46H181.138L178.168 43.66L179.788 37.63H185.143L186.493 43.75L184.198 46ZM180.643 34.39L182.668 26.74L184.423 34.39H180.643ZM201.039 46.72L196.674 42.355L201.039 38.08L205.314 42.355L201.039 46.72ZM223.637 12.745C227.597 12.745 231.557 18.775 233.267 23.725V9.1L230.252 11.305C230.252 11.305 228.272 9.1 222.467 9.1C213.782 9.1 207.887 17.02 207.887 28.045C207.887 39.025 213.782 46.945 222.467 46.945C227.462 46.945 230.252 44.785 230.252 44.785L233.267 46.99V30.88C231.512 37.405 228.272 43.3 223.637 43.3C219.407 43.3 216.347 38.485 216.347 28.045C216.347 17.605 219.407 12.745 223.637 12.745ZM213.422 22.96L212.297 24.355L211.532 22.735C212.252 19.09 213.872 15.625 216.662 13.78C214.727 16.12 213.827 19.54 213.422 22.96ZM210.992 28.09L212.162 26.47L213.332 28.09L212.162 29.665L210.992 28.09ZM216.437 42.355C213.647 40.465 211.937 36.955 211.532 33.4L212.297 31.78L213.422 33.22C213.557 36.91 214.502 40.015 216.437 42.355ZM248.114 46H260.219L257.159 43.21L251.084 18.865H241.364L244.559 21.655L238.214 43.21L234.839 46H245.054L242.084 43.66L243.704 37.63H249.059L250.409 43.75L248.114 46ZM244.559 34.39L246.584 26.74L248.339 34.39H244.559ZM272.2 29.35C269.23 27.865 266.44 26.47 266.44 24.175C266.44 22.285 267.835 21.295 270.31 21.295C273.01 21.295 275.755 22.96 277.375 27.91V18.145L275.26 19.675C273.82 18.685 271.93 18.19 269.95 18.19C265.09 18.19 261.49 20.89 261.49 25.705C261.49 30.475 264.82 32.5 268.06 34.21C271.03 35.785 273.55 37.18 273.55 39.7C273.55 42.04 271.57 43.525 269.455 43.525C266.575 43.525 264.1 41.05 261.13 34.705L261.175 46.675L263.47 44.875C265.225 46 267.07 46.675 269.725 46.675C274.63 46.675 278.905 43.435 278.905 38.53C278.905 33.31 275.665 31.15 272.2 29.35ZM303.625 21.655L306.82 18.865H294.31L297.46 21.655V30.475H290.17V21.655L293.41 18.865H280.9L284.05 21.655V43.21L280.9 46H293.41L290.17 43.21V33.67H297.46V43.21L294.31 46H306.82L303.625 43.21V21.655Z" fill="white"/>
</g>
<path d="M28.1639 6.47631C26.7959 8.93641 25.6799 10.9884 25.6799 11.036C25.6799 11.0843 27.9482 11.12 30.7199 11.12C33.4916 11.12 35.7598 11.0843 35.7598 11.036C35.7598 10.8918 30.8039 1.99998 30.7199 1.99998C30.6841 1.99998 29.5318 4.01621 28.1639 6.47631Z" fill="#B99F65"/>
<path d="M17.7241 7.28007C17.0163 7.84432 14.9161 11.2643 14.0879 13.2203C13.8359 13.8084 13.6202 14.3243 13.5957 14.3482C13.5838 14.372 10.8115 13.1958 7.45176 11.7319C3.75597 10.1358 1.19996 9.08001 0.971751 9.08001C0.504057 9.08001 0 9.5477 0 9.96775C0 10.4599 3.17982 17.7556 3.50395 17.9957C3.73215 18.1637 4.59607 18.2834 7.97964 18.6195C10.2955 18.8477 12.2516 19.0395 12.3356 19.0395C12.4077 19.0395 12.4798 19.1474 12.4798 19.2677C12.4798 19.5555 13.0196 19.4477 6.30008 20.4796C3.26383 20.9473 0.660164 21.3799 0.52788 21.4513C0.26394 21.5843 0 22.0281 0 22.3403C0 22.4363 0.504057 23.7685 1.10403 25.2926C2.26826 28.2085 2.42374 28.4486 3.09581 28.4248C3.27574 28.4128 5.62801 27.5966 8.34013 26.6129L13.2597 24.8123L13.3675 25.1127C13.4158 25.2807 13.4396 25.4368 13.4277 25.4487C13.4039 25.4725 11.6516 26.6367 9.53946 28.0404C7.42731 29.4442 5.57973 30.7043 5.43554 30.8366C5.24369 31.0046 5.15968 31.2209 5.15968 31.5206C5.15968 31.9168 5.30388 32.0967 6.99535 33.7763C8.63918 35.4082 8.8793 35.6 9.23916 35.6C9.61093 35.6 9.92315 35.3242 12.8635 32.3958L16.0671 29.1915L16.3674 29.4674L16.6677 29.7432L14.9875 33.091C14.0753 34.9273 13.3193 36.5712 13.3193 36.7392C13.3193 36.9072 13.4515 37.1831 13.6196 37.3392C13.9073 37.6395 13.9199 37.6395 16.3555 37.6395C18.5153 37.6395 18.8394 37.6156 19.0676 37.4232C19.2237 37.2909 19.7635 36.0433 20.5196 33.9913C21.5516 31.2554 21.7917 30.7156 22.1396 30.3795C23.0518 29.5275 23.2079 28.2078 22.5716 26.8994C22.1277 25.9991 21.4795 25.3277 20.3516 24.5835C19.0319 23.7077 18.3479 22.7234 17.8194 20.8752C17.0276 18.1875 17.4351 14.1795 18.9592 9.55899C19.2469 8.67125 19.415 7.9509 19.3792 7.78288C19.1999 7.07632 18.3241 6.81238 17.7241 7.28007Z" fill="#B99F65"/>
<path d="M42.3959 7.21986C41.9401 7.53208 41.9521 7.98786 42.4198 9.39157C43.5357 12.7275 43.9677 15.0553 43.9677 17.7198C43.9557 19.3755 43.9194 19.8558 43.7037 20.6476C43.1639 22.6036 42.4317 23.6957 41.0399 24.6073C39.5515 25.5916 38.7961 26.5753 38.5077 27.9194C38.3277 28.7714 38.6036 29.6836 39.2393 30.3193C39.6594 30.7394 39.8631 31.1713 40.9195 34.0151C41.6875 36.0433 42.2154 37.2909 42.3715 37.4231C42.5997 37.615 42.9238 37.6394 45.0836 37.6394C47.5199 37.6394 47.5318 37.6394 47.8196 37.3391C47.9876 37.183 48.1199 36.9072 48.1199 36.7392C48.1199 36.5711 47.3638 34.9273 46.4516 33.091L44.7714 29.7432L45.0717 29.4673L45.372 29.1915L48.5763 32.3957C51.516 35.3235 51.8282 35.6 52.2 35.6C52.5598 35.6 52.7999 35.4082 54.4438 33.7763C56.1478 32.0722 56.2801 31.9161 56.2801 31.5086C56.2801 31.1607 56.1961 30.9927 55.944 30.7764C55.7522 30.6322 53.8921 29.3601 51.8037 27.9802C48.2396 25.628 47.9995 25.4361 48.0716 25.1603C48.1079 24.9923 48.1437 24.8481 48.1556 24.8361C48.1675 24.8242 50.3994 25.628 53.0996 26.6123C55.8117 27.6085 58.1634 28.4122 58.3433 28.4241C59.0154 28.4479 59.1715 28.2084 60.3351 25.2919C60.9357 23.7678 61.4397 22.4362 61.4397 22.3403C61.4397 22.0281 61.1758 21.5842 60.9119 21.4526C60.7802 21.3805 58.1759 20.9485 55.1397 20.4808C48.4314 19.4489 48.96 19.5567 48.96 19.2689C48.96 19.1492 49.032 19.0407 49.1161 19.0407C49.1882 19.0407 51.1442 18.8489 53.4601 18.6207C56.8443 18.2847 57.7082 18.1649 57.9358 17.9969C58.2599 17.7568 61.4397 10.4611 61.4397 9.96898C61.4397 9.54893 60.9357 9.08124 60.468 9.08124C60.2398 9.08124 57.744 10.1132 54.1322 11.673C50.8564 13.1012 48.096 14.2892 48.0001 14.3249C47.8685 14.3607 47.76 14.229 47.6522 13.9168C47.1005 12.3325 44.8686 8.52891 43.8724 7.47315C43.4279 6.99229 42.8636 6.89636 42.3959 7.21986Z" fill="#B99F65"/>
<path d="M21.9961 16.7242L19.4758 21.2601L24.5157 21.2958C27.288 21.3077 29.5795 21.2958 29.6039 21.272C29.6641 21.2118 24.6837 12.2121 24.5878 12.2002C24.5521 12.2002 23.3879 14.2403 21.9961 16.7242Z" fill="#B99F65"/>
<path d="M34.284 16.7242C32.916 19.1962 31.812 21.2482 31.8358 21.272C31.8596 21.2958 34.1517 21.3077 36.924 21.2958L41.964 21.2601L39.4437 16.7242C38.0519 14.2403 36.8877 12.2002 36.8519 12.2002C36.8156 12.2121 35.652 14.2403 34.284 16.7242Z" fill="#B99F65"/>
<path d="M28.056 28.868C26.6159 32.0842 25.4398 34.7837 25.4398 34.8678C25.4398 34.9398 26.3877 35.7078 27.54 36.5718L29.6403 38.1316V39.4394V40.7597H28.9444C28.3444 40.7597 28.2002 40.808 27.9482 41.0719C27.6723 41.3722 27.6604 41.4437 27.6241 43.5922L27.5883 45.8122L28.6804 49.1362C29.8566 52.6884 30.0246 53 30.7324 53C31.3926 53 31.5725 52.6521 32.7486 49.1362L33.8527 45.8122L33.8169 43.5922C33.7812 41.4443 33.7693 41.3722 33.4928 41.0719C33.2408 40.808 33.0966 40.7597 32.4966 40.7597H31.8007V39.44V38.1203L33.9128 36.5486C35.6526 35.2527 36.0131 34.9286 35.9648 34.7367C35.8689 34.3649 30.7926 23.0005 30.7211 23.0005C30.6841 22.9998 29.4842 25.6399 28.056 28.868Z" fill="#B99F65"/>
<path d="M22.9797 37.8683C22.3315 38.2765 19.5836 41.156 19.4877 41.5284C19.3197 42.2124 20.0638 42.9684 20.6876 42.7402C21.0958 42.5841 24.1916 39.6319 24.4317 39.1761C24.6718 38.7203 24.5515 38.1918 24.1559 37.8802C23.7722 37.5799 23.448 37.5799 22.9797 37.8683Z" fill="#B99F65"/>
<path d="M37.188 37.988C36.8037 38.3843 36.756 38.6839 37.008 39.1761C37.2839 39.7159 40.3678 42.6562 40.7402 42.7521C41.4242 42.9201 42.1201 42.2123 41.9521 41.5283C41.8919 41.3121 41.28 40.5923 40.2844 39.5842C38.2199 37.484 37.872 37.316 37.188 37.988Z" fill="#B99F65"/>
<path d="M17.6996 43.8799C15.9599 44.2517 15.1436 45.1996 15.2759 46.6761C15.348 47.5043 15.8521 48.6202 16.4997 49.3763C16.8715 49.7963 17.0037 49.8803 17.3874 49.8803C17.7116 49.8803 17.9153 49.7963 18.1197 49.58C18.5278 49.1481 18.4796 48.7042 17.904 47.8522C17.4238 47.1206 17.1843 46.424 17.3279 46.172C17.4721 45.9438 18.756 45.7639 19.6557 45.8479C21.1798 45.9915 22.5597 46.5676 22.5597 47.0598C22.5597 47.1438 22.6675 47.3475 22.8117 47.5281C23.0756 47.8641 23.6756 47.96 24.1076 47.7199C24.4793 47.5281 24.6354 46.9757 24.4919 46.436C24.2041 45.3921 23.028 44.4799 21.4199 44.0599C20.556 43.8317 18.3717 43.7238 17.6996 43.8799Z" fill="#B99F65"/>
<path d="M40.512 43.9401C39.2763 44.1802 38.1961 44.7081 37.5842 45.3683C36.5284 46.52 36.7084 47.8403 37.9202 47.8403C38.3045 47.8403 38.8801 47.3964 38.8801 47.0842C38.8801 46.2924 41.8442 45.5363 43.3802 45.9444C43.92 46.0886 43.9802 46.1363 44.0159 46.4604C44.0397 46.6767 43.92 47.0604 43.7282 47.4202C43.5601 47.7444 43.3081 48.2121 43.1758 48.4522C42.7915 49.1844 43.2116 49.8684 44.0517 49.8803C44.4115 49.8803 44.5676 49.7963 44.8679 49.4603C45.7557 48.4522 46.2478 46.8924 46.0315 45.7764C45.9118 45.1288 45.2278 44.4204 44.4234 44.1207C43.5238 43.7721 41.8079 43.7 40.512 43.9401Z" fill="#B99F65"/>
<defs>
<filter id="filter0_d" x="74.54" y="9.10001" width="234.28" height="41.89" filterUnits="userSpaceOnUse" color-interpolation-filters="sRGB">
<feFlood flood-opacity="0" result="BackgroundImageFix"/>
<feColorMatrix in="SourceAlpha" type="matrix" values="0 0 0 0 0 0 0 0 0 0 0 0 0 0 0 0 0 0 127 0"/>
<feOffset dy="2"/>
<feGaussianBlur stdDeviation="1"/>
<feColorMatrix type="matrix" values="0 0 0 0 0 0 0 0 0 0 0 0 0 0 0 0 0 0 0.25 0"/>
<feBlend mode="normal" in2="BackgroundImageFix" result="effect1_dropShadow"/>
<feBlend mode="normal" in="SourceGraphic" in2="effect1_dropShadow" result="shape"/>
</filter>
</defs>
</svg>
